<svg width="508" height="293" viewBox="0 0 508 293" fill="none" xmlns="http://www.w3.org/2000/svg">
<g opacity="0.7">
<rect width="507.679" height="293" fill="#DAF9FE"/>
<path opacity="0.5" fill-rule="evenodd" clip-rule="evenodd" d="M230.483 135.654C211.596 142.357 206.23 167.426 220.607 181.794C232.737 193.915 252.45 192.532 262.913 178.824C272.141 166.733 269.562 148.939 257.216 139.53C249.923 133.97 239.493 132.458 230.483 135.654ZM233.167 136.395C221.526 140.104 215.457 157.371 220.195 173.31C224.588 188.091 242.465 193.787 254.006 184.081C264.758 175.04 265.198 150.099 254.777 140.525C249.582 135.753 240.583 134.033 233.167 136.395ZM217.058 195.186C218.22 195.656 219.723 196.707 220.399 197.521C221.075 198.334 225.893 210.178 231.105 223.841C236.316 237.506 240.716 248.823 240.88 248.993C241.189 249.313 242.289 246.32 252.806 216.511C257.305 203.756 259.773 198.221 261.711 196.533L264.391 194.198L257.842 194.263C253.159 194.311 251.917 194.582 253.486 195.215C254.691 195.701 255.977 196.881 256.343 197.834C256.874 199.217 244.525 238.149 243.106 239.568C242.535 240.139 227.927 200.601 227.927 198.487C227.927 197.444 228.979 196.083 230.263 195.464C232.14 194.56 230.864 194.338 223.772 194.334C218.126 194.33 215.706 194.638 217.058 195.186Z" fill="#0C8093"/>
<path opacity="0.5" fill-rule="evenodd" clip-rule="evenodd" d="M287.577 146.285C285.791 146.489 284.28 147.507 283.565 148.987C283.379 149.373 283.219 149.884 283.169 150.251C283.143 150.443 283.132 152.739 283.132 157.717V164.905L281.06 167.033C279.418 168.721 278.972 169.198 278.907 169.339C278.713 169.757 278.88 170.359 279.256 170.598C279.499 170.753 279.857 170.73 281.271 170.471C281.318 170.462 281.512 170.431 281.702 170.402C281.891 170.373 282.124 170.333 282.219 170.314C282.313 170.295 282.453 170.27 282.529 170.259C282.604 170.249 282.814 170.215 282.994 170.186C283.174 170.156 283.36 170.126 283.407 170.119C283.516 170.103 283.97 170.028 284.786 169.89C285.137 169.831 285.478 169.775 285.544 169.766C285.61 169.757 285.934 169.707 286.263 169.656C286.607 169.602 286.908 169.572 286.97 169.585C287.029 169.598 287.163 169.624 287.267 169.642C287.569 169.695 316.054 169.73 316.44 169.678C317.626 169.518 318.677 169.01 319.479 168.209C320.113 167.576 320.519 166.846 320.697 166.022C320.759 165.732 320.762 165.434 320.762 157.971L320.763 150.222L320.676 149.871C320.34 148.515 319.453 147.441 318.141 146.803C317.517 146.499 316.931 146.338 316.197 146.268C315.59 146.21 288.09 146.226 287.577 146.285Z" fill="#0C8093"/>
<path opacity="0.5" fill-rule="evenodd" clip-rule="evenodd" d="M308.275 149.739C306.606 149.892 305.153 150.448 303.499 151.566C302.664 152.13 302.155 152.634 301.681 153.365C301.155 154.174 300.877 155.082 300.848 156.081L300.837 156.451L300.737 156.343C300.682 156.284 300.547 156.132 300.436 156.006C299.993 155.498 299.469 155.087 298.914 154.809C298.365 154.535 297.819 154.393 297.015 154.317C296.681 154.286 295.447 154.286 295.154 154.318C294.247 154.416 293.491 154.614 292.948 154.897C292.862 154.943 292.797 154.986 292.805 154.994C292.813 155.001 292.924 155.062 293.052 155.128C293.451 155.333 293.785 155.606 294.059 155.952C294.249 156.192 294.365 156.388 294.592 156.848C294.836 157.343 295.098 157.833 295.213 158.007C295.353 158.222 295.538 158.434 295.709 158.579C296.131 158.935 296.674 159.216 297.202 159.352C297.6 159.453 297.725 159.469 298.168 159.468C298.55 159.468 298.594 159.464 298.781 159.42C299.136 159.334 299.497 159.155 299.769 158.929C299.854 158.858 299.895 158.812 299.895 158.785C299.895 158.707 299.65 158.297 299.414 157.98C298.829 157.196 298.025 156.539 297.04 156.04C296.3 155.665 295.613 155.427 294.68 155.22C294.473 155.175 294.26 155.127 294.206 155.115L294.108 155.093L294.206 155.079C294.317 155.063 294.782 155.077 295.011 155.103C295.874 155.201 296.795 155.487 297.703 155.937C298.179 156.173 298.796 156.552 299.13 156.815C299.899 157.417 300.38 158.231 300.547 159.213C300.629 159.693 300.753 161.704 300.78 162.983C300.785 163.248 300.794 163.55 300.798 163.655C300.803 163.76 300.8 163.857 300.791 163.871C300.781 163.887 300.671 163.911 300.474 163.939C299.054 164.142 297.888 164.568 296.742 165.303C296.626 165.377 296.532 165.441 296.532 165.445C296.532 165.449 298.816 165.453 301.607 165.453H306.683L306.539 165.355C305.443 164.61 304.066 164.11 302.579 163.917C302.388 163.893 302.229 163.87 302.227 163.867C302.22 163.861 302.137 162.863 302.104 162.393C302.089 162.183 302.073 161.958 302.068 161.894C301.987 160.864 301.916 159.581 301.916 159.162C301.916 158.077 302.105 157.074 302.48 156.173C303.178 154.493 303.709 153.613 304.564 152.716C305.111 152.142 305.688 151.677 306.745 150.957C307.448 150.478 307.456 150.484 306.83 151.03C306.592 151.238 306.21 151.569 305.982 151.766C305.753 151.963 305.494 152.193 305.405 152.277C304.367 153.261 303.463 154.729 303.002 156.182C302.832 156.717 302.667 157.566 302.667 157.907C302.667 158.004 302.674 158.031 302.706 158.061C302.779 158.129 303.167 158.261 303.508 158.333C303.705 158.375 304.106 158.41 304.245 158.397C304.507 158.374 304.565 158.366 304.689 158.341C305.489 158.175 306.283 157.603 306.787 156.827C307.15 156.268 307.462 155.396 307.612 154.521C307.668 154.194 307.705 153.898 307.819 152.85C307.868 152.395 307.929 151.881 307.955 151.706C308.054 151.014 308.202 150.474 308.435 149.943L308.531 149.726L308.439 149.729C308.388 149.731 308.315 149.735 308.275 149.739Z" fill="white"/>
</g>
</svg>
