<svg width="231" height="76" viewBox="0 0 231 76" fill="none" xmlns="http://www.w3.org/2000/svg">
<path fill-rule="evenodd" clip-rule="evenodd" d="M202.009 16.0304C200.986 16.1475 200.122 16.7297 199.712 17.5771C199.606 17.7977 199.514 18.0903 199.486 18.3C199.471 18.41 199.464 19.7239 199.464 22.5727V26.6866L198.279 27.9044C197.339 28.8704 197.084 29.1433 197.047 29.2238C196.936 29.4634 197.031 29.8077 197.246 29.9447C197.385 30.0331 197.59 30.0202 198.399 29.8719C198.427 29.8669 198.538 29.8491 198.646 29.8323C198.754 29.8156 198.888 29.7929 198.942 29.7819C198.996 29.771 199.076 29.7569 199.119 29.7507C199.163 29.7445 199.282 29.7255 199.386 29.7085C199.489 29.6915 199.595 29.6743 199.622 29.6703C199.684 29.6612 199.944 29.6182 200.411 29.5395C200.612 29.5058 200.807 29.4737 200.845 29.4684C200.883 29.463 201.068 29.4345 201.257 29.4051C201.453 29.3744 201.625 29.3573 201.661 29.365C201.695 29.3724 201.771 29.387 201.831 29.3974C202.004 29.4277 218.305 29.4478 218.526 29.418C219.205 29.3265 219.806 29.0358 220.266 28.5772C220.628 28.2152 220.861 27.7975 220.962 27.326C220.998 27.1598 221 26.9892 221 22.7184L221 18.2834L220.95 18.0827C220.758 17.3068 220.25 16.6921 219.5 16.3269C219.143 16.1531 218.807 16.0608 218.387 16.0206C218.04 15.9875 202.302 15.9969 202.009 16.0304Z" fill="#0C8093"/>
<path fill-rule="evenodd" clip-rule="evenodd" d="M169.145 9.85397C158.336 13.6897 155.265 28.0363 163.493 36.2588C170.435 43.196 181.716 42.4042 187.704 34.5595C192.985 27.6401 191.509 17.4564 184.444 12.0718C180.27 8.88997 174.301 8.02467 169.145 9.85397ZM170.681 10.2781C164.019 12.4002 160.546 22.2822 163.257 31.4039C165.771 39.8628 176.002 43.1223 182.607 37.5678C188.76 32.394 189.012 18.1204 183.048 12.6414C180.075 9.91037 174.925 8.92627 170.681 10.2781ZM161.462 43.923C162.127 44.192 162.987 44.7937 163.374 45.2593C163.761 45.7244 166.518 52.503 169.501 60.3222C172.483 68.142 175.001 74.6189 175.095 74.7163C175.272 74.8993 175.901 73.1863 181.92 56.1272C184.495 48.8277 185.907 45.6602 187.016 44.6939L188.55 43.3575L184.802 43.3949C182.122 43.4223 181.411 43.5773 182.309 43.9396C182.999 44.2181 183.735 44.8929 183.944 45.4387C184.248 46.2298 177.181 68.5103 176.369 69.3222C176.042 69.6488 167.682 47.0221 167.682 45.8123C167.682 45.2154 168.284 44.4367 169.019 44.0821C170.093 43.5648 169.363 43.4377 165.304 43.4353C162.073 43.4335 160.688 43.6094 161.462 43.923Z" fill="#0C8093"/>
<path fill-rule="evenodd" clip-rule="evenodd" d="M106.936 2.22727C106.128 3.45258 105.12 5.12268 104.696 5.93938L103.926 7.42428L105.552 5.93938C106.446 5.12268 107.975 3.45258 108.951 2.22727C110.543 0.228071 110.606 0 109.565 0C108.882 0 107.801 0.916451 106.936 2.22727ZM30.4922 9.91288C30.1778 10.5038 28.1196 16.6006 25.9188 23.4606C21.4053 37.5305 20.7551 39.0474 18.9174 39.7868C17.9611 40.1717 18.6458 40.3125 21.4743 40.3125C24.3669 40.3125 25.0017 40.1776 24.0002 39.7755C22.3301 39.1044 22.3337 38.2236 24.0276 32.6667L25.385 28.2121L30.803 28.0423L36.221 27.8718L37.7627 32.4986C39.7764 38.5413 39.7627 39.6455 37.67 39.9626C36.7708 40.0986 38.2572 40.2501 40.9722 40.2988L45.9088 40.3879L44.3956 39.0515C43.2646 38.0525 41.6295 34.1189 37.9167 23.4606C32.9462 9.19478 31.8948 7.27578 30.4922 9.91288ZM125.043 9.85938C121.981 10.9855 117.841 14.8901 116.291 18.1152C114.891 21.0267 114.433 26.7784 115.336 30.127C116.313 33.7572 119.373 37.4111 123.036 39.323C128.474 42.162 135.622 41.5051 140.596 37.7104C141.226 37.2299 141.574 36.6698 141.37 36.4655C141.166 36.2618 140.329 36.6217 139.51 37.2656C135.716 40.2477 128.431 40.5209 124.368 37.834C118.839 34.1777 116.901 24.0849 120.368 17.0033C123.167 11.2855 128.178 8.74818 133.94 10.1297C137.113 10.8905 140.93 13.7378 140.945 15.3557C140.953 16.2039 141.031 16.2152 141.531 15.4424C141.847 14.9524 142.111 13.4824 142.116 12.1758C142.125 9.84278 142.085 9.79818 139.896 9.69668C138.671 9.64018 135.394 9.44478 132.615 9.26308C128.843 9.01658 126.925 9.16748 125.043 9.85938ZM0.0780357 9.91518C2.27591 10.7004 2.4554 11.8354 2.4554 24.9455C2.4554 38.0555 2.27591 39.1905 0.0780357 39.9757C-0.412294 40.1509 1.45988 40.2941 4.23839 40.2941C8.18599 40.2941 8.94679 40.1681 7.71769 39.7179C5.74329 38.9951 5.44549 37.8607 5.43539 31.0334L5.42709 25.5394H9.86149C13.6581 25.5394 14.47 25.7265 15.5077 26.8395L16.7196 28.1391V24.9455V21.7519L15.5077 23.0514C14.47 24.1644 13.6581 24.3515 9.86149 24.3515H5.42709V17.5212V10.6909H9.83589C15.1345 10.6909 16.0171 10.9802 16.88 12.999L17.5433 14.5515L17.7698 12.8683C18.2203 9.52858 18.1353 9.49888 8.26859 9.54998C3.27381 9.57548 -0.412294 9.73998 0.0780357 9.91518ZM48.8139 9.87898C51.0207 10.7569 51.1913 11.839 51.1913 24.9455C51.1913 38.0555 51.0118 39.1905 48.8139 39.9757C48.3236 40.1509 51.2073 40.3154 55.2221 40.341C63.4983 40.3944 65.4994 39.8403 68.0729 36.7833C69.5284 35.0555 69.7079 34.4277 69.4666 31.9177C69.1332 28.4515 66.4729 25.3036 63.2284 24.5368L61.1548 24.0474L63.4335 22.5662C64.8438 21.6491 66.0278 20.251 66.5413 18.8944C67.2872 16.9273 67.2586 16.4771 66.2649 14.4785C64.2715 10.4694 62.7452 9.82498 54.8661 9.66518C51.0474 9.58798 48.3236 9.68418 48.8139 9.87898ZM74.0733 10.1748C74.7271 10.5662 75.4587 11.1768 75.6989 11.5314C75.939 11.8859 76.1393 17.9376 76.1446 24.9805C76.1535 38.0579 75.9746 39.1905 73.7762 39.9757C73.2858 40.1509 75.158 40.2941 77.9365 40.2941C81.8841 40.2941 82.6449 40.1681 81.4158 39.7179C79.4414 38.9951 79.1437 37.8607 79.1335 31.0334C79.1252 25.6588 79.1555 25.5394 80.5231 25.5394C83.03 25.5394 85.6808 28.1052 89.4222 34.1515L93.097 40.0909L96.3633 40.2115C98.1603 40.278 99.2283 40.177 98.7383 39.9876C96.9663 39.3022 95.1033 37.107 92.4378 32.5645C90.9449 30.0189 88.9675 27.301 88.0439 26.5248L86.3655 25.1136L88.2008 24.2868C90.9157 23.0645 92.3986 20.6988 92.3986 17.5907C92.3986 14.6418 91.2194 12.4312 88.8017 10.8477C87.5423 10.0233 85.6778 9.76438 80.0435 9.63128C74.2713 9.49588 73.1147 9.60098 74.0733 10.1748ZM102.304 10.2716L103.79 11.0229V24.9455V38.868L102.304 39.6193C100.992 40.2822 101.41 40.3707 105.87 40.3707C110.33 40.3707 110.748 40.2822 109.436 39.6193L107.95 38.868V24.9455V11.0229L109.436 10.2716C110.748 9.60878 110.33 9.52028 105.87 9.52028C101.41 9.52028 100.992 9.60878 102.304 10.2716ZM145.691 10.2716L147.177 11.0229V24.9455V38.868L145.691 39.6193C144.379 40.2822 144.797 40.3707 149.257 40.3707C153.717 40.3707 154.135 40.2822 152.823 39.6193L151.337 38.868V24.9455V11.0229L152.823 10.2716C154.135 9.60878 153.717 9.52028 149.257 9.52028C144.797 9.52028 144.379 9.60878 145.691 10.2716ZM54.5594 11.0871C54.3413 11.3045 54.163 14.2789 54.163 17.6958V23.9085L57.2482 23.6127C61.3699 23.2165 63.0781 21.3486 63.0781 17.2367C63.0781 14.8004 62.7904 14.0586 61.2493 12.5185C59.8561 11.1263 58.8886 10.6909 57.1881 10.6909C55.9602 10.6909 54.7769 10.8691 54.5594 11.0871ZM79.1252 17.5212V24.3515H82.1427C84.6853 24.3515 85.4335 24.0783 86.8974 22.6154C88.3702 21.1437 88.6347 20.4107 88.6347 17.8045C88.6347 15.0997 88.3916 14.4868 86.6139 12.7103C84.9016 10.9992 84.1759 10.6909 81.8592 10.6909H79.1252V17.5212ZM28.431 19.2039C27.2198 22.8815 26.229 26.0781 26.229 26.3086C26.229 26.539 28.3502 26.7273 30.9433 26.7273H35.657L33.3314 19.8091C32.0523 16.0037 30.9219 12.8065 30.8191 12.7044C30.7169 12.6022 29.6423 15.5268 28.431 19.2039ZM54.2592 31.5014C54.4875 38.9577 54.6242 39.1769 59.0568 39.1911C64.4379 39.2083 67.5867 34.0042 65.2159 29.011C63.8691 26.1749 61.5167 24.9455 57.436 24.9455H54.0578L54.2592 31.5014ZM217.847 43.8945C213.15 46.0256 211.417 51.7434 214.211 55.8909C214.958 57.001 217.345 58.9782 219.514 60.2849C224.663 63.3858 226.423 65.0993 226.862 67.4347C227.785 72.3519 222.921 75.4178 217.627 73.2553C215.501 72.387 214.649 71.5953 213.594 69.5087L212.257 66.8633L212.266 70.9983C212.272 73.702 212.461 74.8388 212.814 74.2828C213.259 73.5796 213.757 73.5541 215.696 74.1343C221.752 75.9476 227.23 74.4378 229.133 70.4311C231.423 65.6072 229.694 62.4207 222.367 57.9632C216.659 54.4904 215.659 53.1255 216.037 49.3166C216.669 42.9448 224.868 41.8122 227.45 47.7397C228.251 49.5791 228.258 49.566 228.281 46.1063C228.299 43.3932 228.139 42.75 227.561 43.2115C227.138 43.5494 226.307 43.5987 225.63 43.3261C223.598 42.5077 220.385 42.7423 217.847 43.8945ZM103.79 44.0489C104.444 44.4095 105.714 45.3871 106.613 46.221L108.248 47.7373L108.239 59.0596C108.235 65.287 108.073 70.9704 107.88 71.6891C107.688 72.4084 106.822 73.2559 105.957 73.5725C104.672 74.0435 105.145 74.1557 108.545 74.1866C112.272 74.2211 112.551 74.1468 111.219 73.4745L109.733 72.7237L109.572 60.8984C109.483 54.3948 109.508 49.1901 109.626 49.3338C109.745 49.4769 115.033 55.3338 121.378 62.3494L132.913 75.1048L133.21 60.1702C133.373 51.9566 133.641 45.1198 133.804 44.9785C133.968 44.8365 134.636 44.4219 135.29 44.0573C136.252 43.5203 135.686 43.3992 132.318 43.4223C128.822 43.4467 128.419 43.5465 129.794 44.0483C130.693 44.3768 131.572 45.2243 131.745 45.9317C131.92 46.6391 131.986 52.0861 131.893 58.0356L131.724 68.853L120.251 56.1053L108.778 43.3576L105.69 43.3754C103.111 43.3909 102.797 43.5019 103.79 44.0489ZM140.342 43.7698C142.54 44.555 142.719 45.69 142.719 58.8C142.719 71.91 142.54 73.0451 140.342 73.8302C139.852 74.0055 143.633 74.17 148.745 74.1955L158.04 74.2424L158.441 72.1031C158.662 70.9265 158.692 69.8128 158.507 69.6281C158.323 69.444 158.172 69.605 158.172 69.9857C158.172 70.367 157.637 71.2133 156.983 71.8667C156.007 72.8425 155.002 73.0546 151.358 73.0546C145.857 73.0546 145.691 72.8206 145.691 65.0756V59.394L149.703 59.4029C154.003 59.413 154.634 59.6309 155.679 61.4727C156.24 62.4611 156.356 62.0655 156.371 59.113C156.388 55.7353 156.345 55.629 155.464 56.8858C154.649 58.0493 154.012 58.2061 150.115 58.2061H145.691V51.3758V44.5455H150.332C155.089 44.5455 156.263 44.9844 157.486 47.2182C158.042 48.2344 158.139 48.042 158.154 45.8818L158.172 43.3576L148.811 43.4045C143.663 43.4301 139.852 43.5946 140.342 43.7698ZM191.455 43.7698C193.653 44.555 193.832 45.69 193.832 58.8C193.832 71.91 193.653 73.0451 191.455 73.8302C190.965 74.0055 194.746 74.17 199.858 74.1955L209.153 74.2424L209.555 72.1031C209.776 70.9265 209.805 69.8128 209.62 69.6281C209.436 69.444 209.285 69.605 209.285 69.9857C209.285 70.367 208.75 71.2133 208.097 71.8667C207.12 72.8425 206.116 73.0546 202.471 73.0546C196.971 73.0546 196.804 72.8206 196.804 65.0756V59.394L200.816 59.4029C205.117 59.413 205.747 59.6309 206.792 61.4727C207.353 62.4611 207.469 62.0655 207.484 59.113C207.502 55.7353 207.458 55.629 206.577 56.8858C205.762 58.0493 205.126 58.2061 201.228 58.2061H196.804V51.3758V44.5455H201.445C206.202 44.5455 207.376 44.9844 208.599 47.2182C209.155 48.2344 209.252 48.042 209.267 45.8818L209.285 43.3576L199.924 43.4045C194.776 43.4301 190.965 43.5946 191.455 43.7698Z" fill="#171A23"/>
<path fill-rule="evenodd" clip-rule="evenodd" d="M35.0513 55.897L35.0515 56.9224L35.3473 56.3561C35.6826 55.7137 36.0463 55.5755 37.4636 55.5519L38.4389 55.5356L38.3936 59.4059L38.3483 63.2763L37.9255 63.4825C37.5523 63.6646 37.6714 63.6889 38.9401 63.6889C40.2087 63.6889 40.3278 63.6646 39.9546 63.4825L39.5319 63.2763L39.4866 59.4059L39.4412 55.5356H40.3491C41.6298 55.5356 42.2896 55.7956 42.5691 56.4106C42.799 56.9169 42.8017 56.9114 42.8153 55.9027C42.8279 54.9674 42.6695 54.6354 42.4064 55.0461C42.264 55.2683 35.8094 55.2631 35.378 55.0404C35.0708 54.8816 35.051 54.9337 35.0513 55.897ZM88.1454 55.897L88.1456 56.9224L88.4413 56.3561C88.7766 55.7137 89.1404 55.5755 90.5577 55.5519L91.533 55.5356L91.4877 59.4059L91.4423 63.2763L91.0196 63.4825C90.6464 63.6646 90.7655 63.6889 92.0341 63.6889C93.3028 63.6889 93.4219 63.6646 93.0487 63.4825L92.626 63.2763L92.5806 59.4059L92.5353 55.5356H93.4432C94.7243 55.5356 95.3833 55.7956 95.6633 56.4106C95.8933 56.9169 95.8963 56.9114 95.9093 55.9027C95.9223 54.9674 95.7633 54.6354 95.5003 55.0461C95.3583 55.2683 88.9035 55.2631 88.4721 55.0404C88.1649 54.8816 88.1451 54.9337 88.1454 55.897ZM8.40338 55.3567C7.06718 55.9422 6.57418 57.5129 7.36888 58.6523C7.58158 58.9572 8.26048 59.5004 8.87778 59.8594C10.3425 60.7112 10.8433 61.182 10.9681 61.8235C11.2307 63.1743 9.84688 64.0166 8.34098 63.4225C7.73598 63.184 7.49368 62.9665 7.19348 62.3933L6.81308 61.6665L6.81558 62.8025C6.81728 63.5452 6.87118 63.8575 6.97148 63.7048C7.09818 63.5116 7.23988 63.5046 7.79158 63.664C9.51438 64.1621 11.0729 63.7474 11.6142 62.6467C12.2659 61.3215 11.7738 60.4461 9.68928 59.2216C8.06538 58.2676 7.78088 57.8926 7.88848 56.8462C8.06838 55.0958 10.401 54.7847 11.1355 56.4131C11.3634 56.9184 11.3653 56.9148 11.3719 55.9644C11.377 55.219 11.3315 55.0423 11.1671 55.1691C11.0467 55.2619 10.8102 55.2755 10.6176 55.2006C10.0396 54.9758 9.12548 55.0402 8.40338 55.3567ZM19.1857 55.463C18.159 55.9653 17.065 57.1784 16.7961 58.113C16.3484 59.6685 16.6943 61.3518 17.6972 62.498C19.1126 64.1159 22.0947 64.3349 23.9633 62.9581C24.1425 62.8261 24.2381 62.6689 24.1757 62.6086C24.1133 62.5484 23.9249 62.6191 23.7568 62.7658C23.3042 63.1611 22.0903 63.5305 21.2435 63.5305C20.2865 63.5305 19.5472 63.219 18.8693 62.5302C18.0552 61.7029 17.7527 60.8646 17.7467 59.419C17.7423 58.3433 17.8134 58.0272 18.2408 57.2207C18.7772 56.2088 19.4758 55.641 20.5178 55.3703C21.7799 55.0423 23.6784 55.7738 23.9851 56.7064C24.1503 57.2086 24.3926 56.7586 24.3958 55.9435C24.3984 55.3029 24.3867 55.2903 23.7643 55.2613C23.4156 55.2451 22.4454 55.1848 21.6084 55.127C20.1787 55.0286 20.032 55.0489 19.1857 55.463ZM28.1183 55.3853C26.4171 56.1275 25.4148 57.6369 25.4183 59.4515C25.4276 64.2212 32.1537 65.5971 34.1922 61.2462C34.5858 60.4063 34.6535 58.9455 34.3449 57.9515C34.0684 57.061 32.9436 55.8878 31.9293 55.4321C30.8146 54.9312 29.2042 54.9115 28.1183 55.3853ZM60.9635 55.3153C60.894 55.4767 60.2284 57.3356 59.4844 59.4461C58.3316 62.7167 58.0693 63.3135 57.709 63.4863C57.3294 63.6682 57.3985 63.6881 58.3853 63.6809C59.2141 63.6749 59.3909 63.6367 59.104 63.5255C58.6266 63.3403 58.6302 63.0927 59.1322 61.5726L59.5363 60.3488L61.0585 60.3022L62.5808 60.2554L63.0323 61.5639C63.5507 63.066 63.5373 63.3902 62.9499 63.5478C62.7046 63.6137 63.1648 63.6669 64.0498 63.6751C65.3586 63.687 65.5148 63.6607 65.1655 63.4873C64.9421 63.3765 64.6888 63.1756 64.6024 63.041C64.516 62.9064 63.8202 61.0712 63.0561 58.9628C62.0397 56.1585 61.5893 55.1148 61.3782 55.0756C61.2196 55.0461 61.033 55.1539 60.9635 55.3153ZM99.1773 55.3153C99.1083 55.4767 98.4423 57.3356 97.6983 59.4461C96.5453 62.7167 96.2833 63.3135 95.9233 63.4863C95.5433 63.6682 95.6123 63.6881 96.5993 63.6809C97.4283 63.6749 97.6053 63.6367 97.3183 63.5255C96.8413 63.3403 96.8443 63.0927 97.3463 61.5726L97.7503 60.3488L99.2723 60.3022L100.795 60.2554L101.246 61.5639C101.765 63.066 101.751 63.3902 101.164 63.5478C100.918 63.6137 101.379 63.6669 102.264 63.6751C103.573 63.687 103.729 63.6607 103.379 63.4873C103.156 63.3765 102.903 63.1756 102.816 63.041C102.73 62.9064 102.034 61.0712 101.27 58.9628C100.254 56.1585 99.8033 55.1148 99.5923 55.0756C99.4343 55.0461 99.2473 55.1539 99.1773 55.3153ZM0.687281 55.4C0.898481 55.5038 1.11018 55.7418 1.15769 55.9293C1.20537 56.1166 1.22262 57.8463 1.19641 59.7731L1.14856 63.2763L0.725841 63.4825C0.352661 63.6646 0.471861 63.6889 1.74037 63.6889C3.00837 63.6889 3.12775 63.6646 2.75491 63.4829C2.34859 63.285 2.33033 63.2088 2.28416 61.5274L2.23614 59.7778H3.203C5.52778 59.7778 6.85298 58.0579 5.80528 56.4002C5.24628 55.5153 4.61878 55.3088 2.33219 55.2572C0.710451 55.2205 0.380221 55.2492 0.687281 55.4ZM13.1147 55.4674L13.5829 55.7123L13.5374 59.4944L13.4921 63.2763L13.0694 63.4825C12.6962 63.6646 12.8154 63.6889 14.0839 63.6889C15.3524 63.6889 15.4716 63.6646 15.0985 63.4825L14.6757 63.2763L14.6304 59.4944L14.5849 55.7123L15.0531 55.4674C15.5004 55.2332 15.4573 55.2223 14.0839 55.2223C12.7106 55.2223 12.6675 55.2332 13.1147 55.4674ZM29.2174 55.3572C28.0137 55.6459 27.0842 56.5609 26.6884 57.8471C26.0061 60.0638 26.8104 62.462 28.5238 63.3205C29.8297 63.9748 31.9702 63.4364 32.8023 62.2445C33.8268 60.7767 33.772 57.9892 32.6897 56.5227C32.0319 55.6313 30.383 55.0777 29.2174 55.3572ZM43.6746 55.3225C44.2999 55.5382 44.3509 55.85 44.3509 59.4515C44.3509 63.0529 44.2999 63.3647 43.6746 63.5804C43.5351 63.6286 44.6108 63.6738 46.0653 63.6808L48.7095 63.6937L48.8238 63.106C48.8868 62.7827 48.8952 62.4768 48.8426 62.4261C48.7902 62.3755 48.7473 62.4197 48.7473 62.5243C48.7473 62.629 48.5951 62.8615 48.4091 63.041C48.1313 63.3091 47.8455 63.3673 46.8086 63.3673C45.2437 63.3673 45.1964 63.3031 45.1964 61.1754V59.6146L46.3377 59.6171C47.5613 59.6198 47.7407 59.6797 48.0379 60.1857C48.1975 60.4572 48.2305 60.3485 48.2349 59.5374C48.2398 58.6095 48.2275 58.5803 47.9767 58.9256C47.7449 59.2452 47.5638 59.2883 46.4549 59.2883H45.1964V57.4119V55.5356H46.5168C47.87 55.5356 48.2041 55.6561 48.552 56.2698C48.7102 56.549 48.7378 56.4961 48.7422 55.9027L48.7473 55.2092L46.0841 55.2221C44.6193 55.2291 43.5351 55.2743 43.6746 55.3225ZM49.9261 55.3908C50.1559 55.4794 50.4021 55.64 50.473 55.7477C50.544 55.8554 50.6032 57.5263 50.6047 59.4611C50.6072 63.0536 50.5563 63.3647 49.9309 63.5804C49.7914 63.6286 50.324 63.6679 51.1145 63.6679C52.2376 63.6679 52.454 63.6333 52.1044 63.5096C51.5426 63.3111 51.4579 62.9994 51.4551 61.1239C51.4529 59.6998 51.4726 59.6146 51.8071 59.6146C52.0019 59.6146 52.3842 59.7416 52.6563 59.8967C53.161 60.1844 53.3565 60.4314 54.7252 62.5107L55.5041 63.6937L56.3952 63.6808C56.8852 63.6738 57.1721 63.6276 57.0326 63.5785C56.5347 63.4028 56.0014 62.7973 55.2379 61.5409C54.8118 60.8395 54.2586 60.1021 54.0086 59.9023L53.554 59.5391L54.0555 59.2912C55.2183 58.7166 55.6319 57.1957 54.8906 56.2197C54.2709 55.4039 53.5996 55.2088 51.4527 55.2198C49.9961 55.2274 49.613 55.2703 49.9261 55.3908ZM66.4631 55.4C66.6743 55.5038 66.886 55.7418 66.9335 55.9293C66.9812 56.1166 66.9984 57.8463 66.9722 59.7731L66.9244 63.2763L66.5016 63.4825C66.1285 63.6646 66.2477 63.6889 67.5162 63.6889C68.7842 63.6889 68.9036 63.6646 68.5307 63.4829C68.1244 63.285 68.1061 63.2088 68.06 61.5274L68.0119 59.7778H68.9788C71.3036 59.7778 72.6288 58.0579 71.5811 56.4002C71.0221 55.5153 70.3946 55.3088 68.108 55.2572C66.4863 55.2205 66.156 55.2492 66.4631 55.4ZM72.927 55.3225C73.5523 55.5382 73.6034 55.85 73.6034 59.4515C73.6034 63.0529 73.5523 63.3647 72.927 63.5804C72.7875 63.6286 73.8633 63.6738 75.3178 63.6808L77.962 63.6937L78.0763 63.106C78.1392 62.7827 78.1477 62.4768 78.0951 62.4261C78.0427 62.3755 77.9997 62.4197 77.9997 62.5243C77.9997 62.629 77.8475 62.8615 77.6615 63.041C77.3837 63.3091 77.098 63.3673 76.0611 63.3673C74.4962 63.3673 74.4488 63.3031 74.4488 61.1754V59.6146L75.5902 59.6171C76.8137 59.6198 76.9931 59.6797 77.2904 60.1857C77.45 60.4572 77.483 60.3485 77.4874 59.5374C77.4923 58.6095 77.4799 58.5803 77.2292 58.9256C76.9974 59.2452 76.8163 59.2883 75.7074 59.2883H74.4488V57.4119V55.5356H75.7693C77.1225 55.5356 77.4566 55.6561 77.8044 56.2698C77.9627 56.549 77.9903 56.4961 77.9946 55.9027L77.9997 55.2092L75.3366 55.2221C73.8717 55.2291 72.7875 55.2743 72.927 55.3225ZM79.0988 55.4042C79.2848 55.506 79.4929 55.669 79.5613 55.7664C79.6296 55.8638 79.6866 57.2052 79.6881 58.7474C79.6908 61.7318 79.7802 62.1913 80.5046 62.9387C81.7767 64.2517 84.4187 64.1438 85.3198 62.7421L85.5998 62.3068L85.6042 63.0002L85.6087 63.6937L86.581 63.6834C87.3154 63.6756 87.4628 63.6379 87.1838 63.5294C86.5257 63.2735 86.4542 62.8741 86.4542 59.4515C86.4542 56.0288 86.5257 55.6294 87.1838 55.3735C87.4366 55.2753 87.0727 55.2308 86.0315 55.2324C84.8139 55.2345 84.6027 55.2678 84.975 55.399C85.2391 55.492 85.4829 55.7266 85.5387 55.9414C85.5929 56.1495 85.6118 57.6066 85.5807 59.1795C85.5293 61.7837 85.4924 62.0802 85.1683 62.4993C84.3485 63.5594 82.6894 63.9268 81.7555 63.2551C80.7623 62.5408 80.6308 62.0745 80.5618 59.0259C80.4948 56.0624 80.576 55.6418 81.2657 55.3735C81.5227 55.2737 81.1974 55.2283 80.1979 55.2246C79.0423 55.2202 78.8269 55.2554 79.0988 55.4042ZM2.24764 57.5958V59.6561L3.1056 59.5766C3.58298 59.5324 4.16448 59.3532 4.41608 59.1731C5.31158 58.5319 5.32758 56.8508 4.44628 56.0006C4.04318 55.6114 3.82438 55.5356 3.10611 55.5356H2.24764V57.5958ZM51.4527 57.4322V59.3288L52.4113 59.2521C53.6828 59.1503 54.1581 58.6649 54.1581 57.4681C54.1581 56.7497 54.0851 56.5746 53.5832 56.0903C53.0961 55.6202 52.8896 55.5356 52.2305 55.5356H51.4527V57.4322ZM68.0234 57.5958V59.6561L68.8814 59.5766C69.3587 59.5324 69.9402 59.3532 70.1918 59.1731C71.0873 58.5319 71.1034 56.8508 70.2221 56.0006C69.819 55.6114 69.6002 55.5356 68.8819 55.5356H68.0234V57.5958ZM60.3645 57.8742C60.0199 58.8845 59.7381 59.7626 59.7381 59.8259C59.7381 59.8892 60.3451 59.9409 61.0869 59.9409H62.4357L61.7419 58.0238C61.3605 56.9693 61.0355 56.0911 61.0196 56.072C61.0039 56.0531 60.7091 56.864 60.3645 57.8742ZM98.5783 57.8742C98.2343 58.8845 97.9523 59.7626 97.9523 59.8259C97.9523 59.8892 98.5593 59.9409 99.3013 59.9409H100.65L99.9563 58.0238C99.5743 56.9693 99.2493 56.0911 99.2343 56.072C99.2183 56.0531 98.9233 56.864 98.5783 57.8742Z" fill="#171A23"/>
<path d="M0.540283 66.8727H103.04" stroke="#0C8093"/>
<path fill-rule="evenodd" clip-rule="evenodd" d="M169.145 9.85397C158.336 13.6897 155.265 28.0363 163.493 36.2588C170.435 43.196 181.716 42.4042 187.704 34.5595C192.985 27.6401 191.509 17.4564 184.444 12.0718C180.27 8.88997 174.301 8.02467 169.145 9.85397ZM170.681 10.2781C164.019 12.4002 160.546 22.2822 163.257 31.4039C165.771 39.8628 176.002 43.1223 182.607 37.5678C188.76 32.394 189.012 18.1204 183.048 12.6414C180.075 9.91037 174.925 8.92627 170.681 10.2781ZM161.462 43.923C162.127 44.192 162.987 44.7937 163.374 45.2593C163.761 45.7244 166.518 52.503 169.501 60.3222C172.483 68.142 175.001 74.6189 175.095 74.7163C175.272 74.8993 175.901 73.1863 181.92 56.1272C184.495 48.8277 185.907 45.6602 187.016 44.6939L188.55 43.3575L184.802 43.3949C182.122 43.4223 181.411 43.5773 182.309 43.9396C182.999 44.2181 183.735 44.8929 183.944 45.4387C184.248 46.2298 177.181 68.5103 176.369 69.3222C176.042 69.6488 167.682 47.0221 167.682 45.8123C167.682 45.2154 168.284 44.4367 169.019 44.0821C170.093 43.5648 169.363 43.4377 165.304 43.4353C162.073 43.4335 160.688 43.6094 161.462 43.923Z" fill="#0C8093"/>
<path fill-rule="evenodd" clip-rule="evenodd" d="M106.936 2.22727C106.128 3.45258 105.12 5.12268 104.696 5.93938L103.926 7.42428L105.552 5.93938C106.446 5.12268 107.975 3.45258 108.951 2.22727C110.543 0.228071 110.606 0 109.565 0C108.882 0 107.801 0.916451 106.936 2.22727ZM30.4922 9.91288C30.1778 10.5038 28.1196 16.6006 25.9188 23.4606C21.4053 37.5305 20.7551 39.0474 18.9174 39.7868C17.9611 40.1717 18.6458 40.3125 21.4743 40.3125C24.3669 40.3125 25.0017 40.1776 24.0002 39.7755C22.3301 39.1044 22.3337 38.2236 24.0276 32.6667L25.385 28.2121L30.803 28.0423L36.221 27.8718L37.7627 32.4986C39.7764 38.5413 39.7627 39.6455 37.67 39.9626C36.7708 40.0986 38.2572 40.2501 40.9722 40.2988L45.9088 40.3879L44.3956 39.0515C43.2646 38.0525 41.6295 34.1189 37.9167 23.4606C32.9462 9.19478 31.8948 7.27578 30.4922 9.91288ZM125.043 9.85938C121.981 10.9855 117.841 14.8901 116.291 18.1152C114.891 21.0267 114.433 26.7784 115.336 30.127C116.313 33.7572 119.373 37.4111 123.036 39.323C128.474 42.162 135.622 41.5051 140.596 37.7104C141.226 37.2299 141.574 36.6698 141.37 36.4655C141.166 36.2618 140.329 36.6217 139.51 37.2656C135.716 40.2477 128.431 40.5209 124.368 37.834C118.839 34.1777 116.901 24.0849 120.368 17.0033C123.167 11.2855 128.178 8.74818 133.94 10.1297C137.113 10.8905 140.93 13.7378 140.945 15.3557C140.953 16.2039 141.031 16.2152 141.531 15.4424C141.847 14.9524 142.111 13.4824 142.116 12.1758C142.125 9.84278 142.085 9.79818 139.896 9.69668C138.671 9.64018 135.394 9.44478 132.615 9.26308C128.843 9.01658 126.925 9.16748 125.043 9.85938ZM0.0780357 9.91518C2.27591 10.7004 2.4554 11.8354 2.4554 24.9455C2.4554 38.0555 2.27591 39.1905 0.0780357 39.9757C-0.412294 40.1509 1.45988 40.2941 4.23839 40.2941C8.18599 40.2941 8.94679 40.1681 7.71769 39.7179C5.74329 38.9951 5.44549 37.8607 5.43539 31.0334L5.42709 25.5394H9.86149C13.6581 25.5394 14.47 25.7265 15.5077 26.8395L16.7196 28.1391V24.9455V21.7519L15.5077 23.0514C14.47 24.1644 13.6581 24.3515 9.86149 24.3515H5.42709V17.5212V10.6909H9.83589C15.1345 10.6909 16.0171 10.9802 16.88 12.999L17.5433 14.5515L17.7698 12.8683C18.2203 9.52858 18.1353 9.49888 8.26859 9.54998C3.27381 9.57548 -0.412294 9.73998 0.0780357 9.91518ZM48.8139 9.87898C51.0207 10.7569 51.1913 11.839 51.1913 24.9455C51.1913 38.0555 51.0118 39.1905 48.8139 39.9757C48.3236 40.1509 51.2073 40.3154 55.2221 40.341C63.4983 40.3944 65.4994 39.8403 68.0729 36.7833C69.5284 35.0555 69.7079 34.4277 69.4666 31.9177C69.1332 28.4515 66.4729 25.3036 63.2284 24.5368L61.1548 24.0474L63.4335 22.5662C64.8438 21.6491 66.0278 20.251 66.5413 18.8944C67.2872 16.9273 67.2586 16.4771 66.2649 14.4785C64.2715 10.4694 62.7452 9.82498 54.8661 9.66518C51.0474 9.58798 48.3236 9.68418 48.8139 9.87898ZM74.0733 10.1748C74.7271 10.5662 75.4587 11.1768 75.6989 11.5314C75.939 11.8859 76.1393 17.9376 76.1446 24.9805C76.1535 38.0579 75.9746 39.1905 73.7762 39.9757C73.2858 40.1509 75.158 40.2941 77.9365 40.2941C81.8841 40.2941 82.6449 40.1681 81.4158 39.7179C79.4414 38.9951 79.1437 37.8607 79.1335 31.0334C79.1252 25.6588 79.1555 25.5394 80.5231 25.5394C83.03 25.5394 85.6808 28.1052 89.4222 34.1515L93.097 40.0909L96.3633 40.2115C98.1603 40.278 99.2283 40.177 98.7383 39.9876C96.9663 39.3022 95.1033 37.107 92.4378 32.5645C90.9449 30.0189 88.9675 27.301 88.0439 26.5248L86.3655 25.1136L88.2008 24.2868C90.9157 23.0645 92.3986 20.6988 92.3986 17.5907C92.3986 14.6418 91.2194 12.4312 88.8017 10.8477C87.5423 10.0233 85.6778 9.76438 80.0435 9.63128C74.2713 9.49588 73.1147 9.60098 74.0733 10.1748ZM102.304 10.2716L103.79 11.0229V24.9455V38.868L102.304 39.6193C100.992 40.2822 101.41 40.3707 105.87 40.3707C110.33 40.3707 110.748 40.2822 109.436 39.6193L107.95 38.868V24.9455V11.0229L109.436 10.2716C110.748 9.60878 110.33 9.52028 105.87 9.52028C101.41 9.52028 100.992 9.60878 102.304 10.2716ZM145.691 10.2716L147.177 11.0229V24.9455V38.868L145.691 39.6193C144.379 40.2822 144.797 40.3707 149.257 40.3707C153.717 40.3707 154.135 40.2822 152.823 39.6193L151.337 38.868V24.9455V11.0229L152.823 10.2716C154.135 9.60878 153.717 9.52028 149.257 9.52028C144.797 9.52028 144.379 9.60878 145.691 10.2716ZM54.5594 11.0871C54.3413 11.3045 54.163 14.2789 54.163 17.6958V23.9085L57.2482 23.6127C61.3699 23.2165 63.0781 21.3486 63.0781 17.2367C63.0781 14.8004 62.7904 14.0586 61.2493 12.5185C59.8561 11.1263 58.8886 10.6909 57.1881 10.6909C55.9602 10.6909 54.7769 10.8691 54.5594 11.0871ZM79.1252 17.5212V24.3515H82.1427C84.6853 24.3515 85.4335 24.0783 86.8974 22.6154C88.3702 21.1437 88.6347 20.4107 88.6347 17.8045C88.6347 15.0997 88.3916 14.4868 86.6139 12.7103C84.9016 10.9992 84.1759 10.6909 81.8592 10.6909H79.1252V17.5212ZM28.431 19.2039C27.2198 22.8815 26.229 26.0781 26.229 26.3086C26.229 26.539 28.3502 26.7273 30.9433 26.7273H35.657L33.3314 19.8091C32.0523 16.0037 30.9219 12.8065 30.8191 12.7044C30.7169 12.6022 29.6423 15.5268 28.431 19.2039ZM54.2592 31.5014C54.4875 38.9577 54.6242 39.1769 59.0568 39.1911C64.4379 39.2083 67.5867 34.0042 65.2159 29.011C63.8691 26.1749 61.5167 24.9455 57.436 24.9455H54.0578L54.2592 31.5014ZM217.847 43.8945C213.15 46.0256 211.417 51.7434 214.211 55.8909C214.958 57.001 217.345 58.9782 219.514 60.2849C224.663 63.3858 226.423 65.0993 226.862 67.4347C227.785 72.3519 222.921 75.4178 217.627 73.2553C215.501 72.387 214.649 71.5953 213.594 69.5087L212.257 66.8633L212.266 70.9983C212.272 73.702 212.461 74.8388 212.814 74.2828C213.259 73.5796 213.757 73.5541 215.696 74.1343C221.752 75.9476 227.23 74.4378 229.133 70.4311C231.423 65.6072 229.694 62.4207 222.367 57.9632C216.659 54.4904 215.659 53.1255 216.037 49.3166C216.669 42.9448 224.868 41.8122 227.45 47.7397C228.251 49.5791 228.258 49.566 228.281 46.1063C228.299 43.3932 228.139 42.75 227.561 43.2115C227.138 43.5494 226.307 43.5987 225.63 43.3261C223.598 42.5077 220.385 42.7423 217.847 43.8945ZM103.79 44.0489C104.444 44.4095 105.714 45.3871 106.613 46.221L108.248 47.7373L108.239 59.0596C108.235 65.287 108.073 70.9704 107.88 71.6891C107.688 72.4084 106.822 73.2559 105.957 73.5725C104.672 74.0435 105.145 74.1557 108.545 74.1866C112.272 74.2211 112.551 74.1468 111.219 73.4745L109.733 72.7237L109.572 60.8984C109.483 54.3948 109.508 49.1901 109.626 49.3338C109.745 49.4769 115.033 55.3338 121.378 62.3494L132.913 75.1048L133.21 60.1702C133.373 51.9566 133.641 45.1198 133.804 44.9785C133.968 44.8365 134.636 44.4219 135.29 44.0573C136.252 43.5203 135.686 43.3992 132.318 43.4223C128.822 43.4467 128.419 43.5465 129.794 44.0483C130.693 44.3768 131.572 45.2243 131.745 45.9317C131.92 46.6391 131.986 52.0861 131.893 58.0356L131.724 68.853L120.251 56.1053L108.778 43.3576L105.69 43.3754C103.111 43.3909 102.797 43.5019 103.79 44.0489ZM140.342 43.7698C142.54 44.555 142.719 45.69 142.719 58.8C142.719 71.91 142.54 73.0451 140.342 73.8302C139.852 74.0055 143.633 74.17 148.745 74.1955L158.04 74.2424L158.441 72.1031C158.662 70.9265 158.692 69.8128 158.507 69.6281C158.323 69.444 158.172 69.605 158.172 69.9857C158.172 70.367 157.637 71.2133 156.983 71.8667C156.007 72.8425 155.002 73.0546 151.358 73.0546C145.857 73.0546 145.691 72.8206 145.691 65.0756V59.394L149.703 59.4029C154.003 59.413 154.634 59.6309 155.679 61.4727C156.24 62.4611 156.356 62.0655 156.371 59.113C156.388 55.7353 156.345 55.629 155.464 56.8858C154.649 58.0493 154.012 58.2061 150.115 58.2061H145.691V51.3758V44.5455H150.332C155.089 44.5455 156.263 44.9844 157.486 47.2182C158.042 48.2344 158.139 48.042 158.154 45.8818L158.172 43.3576L148.811 43.4045C143.663 43.4301 139.852 43.5946 140.342 43.7698ZM191.455 43.7698C193.653 44.555 193.832 45.69 193.832 58.8C193.832 71.91 193.653 73.0451 191.455 73.8302C190.965 74.0055 194.746 74.17 199.858 74.1955L209.153 74.2424L209.555 72.1031C209.776 70.9265 209.805 69.8128 209.62 69.6281C209.436 69.444 209.285 69.605 209.285 69.9857C209.285 70.367 208.75 71.2133 208.097 71.8667C207.12 72.8425 206.116 73.0546 202.471 73.0546C196.971 73.0546 196.804 72.8206 196.804 65.0756V59.394L200.816 59.4029C205.117 59.413 205.747 59.6309 206.792 61.4727C207.353 62.4611 207.469 62.0655 207.484 59.113C207.502 55.7353 207.458 55.629 206.577 56.8858C205.762 58.0493 205.126 58.2061 201.228 58.2061H196.804V51.3758V44.5455H201.445C206.202 44.5455 207.376 44.9844 208.599 47.2182C209.155 48.2344 209.252 48.042 209.267 45.8818L209.285 43.3576L199.924 43.4045C194.776 43.4301 190.965 43.5946 191.455 43.7698Z" fill="#171A23"/>
<path fill-rule="evenodd" clip-rule="evenodd" d="M35.0513 55.897L35.0515 56.9224L35.3473 56.3561C35.6826 55.7137 36.0463 55.5755 37.4636 55.5519L38.4389 55.5356L38.3936 59.4059L38.3483 63.2763L37.9255 63.4825C37.5523 63.6646 37.6714 63.6889 38.9401 63.6889C40.2087 63.6889 40.3278 63.6646 39.9546 63.4825L39.5319 63.2763L39.4866 59.4059L39.4412 55.5356H40.3491C41.6298 55.5356 42.2896 55.7956 42.5691 56.4106C42.799 56.9169 42.8017 56.9114 42.8153 55.9027C42.8279 54.9674 42.6695 54.6354 42.4064 55.0461C42.264 55.2683 35.8094 55.2631 35.378 55.0404C35.0708 54.8816 35.051 54.9337 35.0513 55.897ZM88.1454 55.897L88.1456 56.9224L88.4413 56.3561C88.7766 55.7137 89.1404 55.5755 90.5577 55.5519L91.533 55.5356L91.4877 59.4059L91.4423 63.2763L91.0196 63.4825C90.6464 63.6646 90.7655 63.6889 92.0341 63.6889C93.3028 63.6889 93.4219 63.6646 93.0487 63.4825L92.626 63.2763L92.5806 59.4059L92.5353 55.5356H93.4432C94.7243 55.5356 95.3833 55.7956 95.6633 56.4106C95.8933 56.9169 95.8963 56.9114 95.9093 55.9027C95.9223 54.9674 95.7633 54.6354 95.5003 55.0461C95.3583 55.2683 88.9035 55.2631 88.4721 55.0404C88.1649 54.8816 88.1451 54.9337 88.1454 55.897ZM8.40338 55.3567C7.06718 55.9422 6.57418 57.5129 7.36888 58.6523C7.58158 58.9572 8.26048 59.5004 8.87778 59.8594C10.3425 60.7112 10.8433 61.182 10.9681 61.8235C11.2307 63.1743 9.84688 64.0166 8.34098 63.4225C7.73598 63.184 7.49368 62.9665 7.19348 62.3933L6.81308 61.6665L6.81558 62.8025C6.81728 63.5452 6.87118 63.8575 6.97148 63.7048C7.09818 63.5116 7.23988 63.5046 7.79158 63.664C9.51438 64.1621 11.0729 63.7474 11.6142 62.6467C12.2659 61.3215 11.7738 60.4461 9.68928 59.2216C8.06538 58.2676 7.78088 57.8926 7.88848 56.8462C8.06838 55.0958 10.401 54.7847 11.1355 56.4131C11.3634 56.9184 11.3653 56.9148 11.3719 55.9644C11.377 55.219 11.3315 55.0423 11.1671 55.1691C11.0467 55.2619 10.8102 55.2755 10.6176 55.2006C10.0396 54.9758 9.12548 55.0402 8.40338 55.3567ZM19.1857 55.463C18.159 55.9653 17.065 57.1784 16.7961 58.113C16.3484 59.6685 16.6943 61.3518 17.6972 62.498C19.1126 64.1159 22.0947 64.3349 23.9633 62.9581C24.1425 62.8261 24.2381 62.6689 24.1757 62.6086C24.1133 62.5484 23.9249 62.6191 23.7568 62.7658C23.3042 63.1611 22.0903 63.5305 21.2435 63.5305C20.2865 63.5305 19.5472 63.219 18.8693 62.5302C18.0552 61.7029 17.7527 60.8646 17.7467 59.419C17.7423 58.3433 17.8134 58.0272 18.2408 57.2207C18.7772 56.2088 19.4758 55.641 20.5178 55.3703C21.7799 55.0423 23.6784 55.7738 23.9851 56.7064C24.1503 57.2086 24.3926 56.7586 24.3958 55.9435C24.3984 55.3029 24.3867 55.2903 23.7643 55.2613C23.4156 55.2451 22.4454 55.1848 21.6084 55.127C20.1787 55.0286 20.032 55.0489 19.1857 55.463ZM28.1183 55.3853C26.4171 56.1275 25.4148 57.6369 25.4183 59.4515C25.4276 64.2212 32.1537 65.5971 34.1922 61.2462C34.5858 60.4063 34.6535 58.9455 34.3449 57.9515C34.0684 57.061 32.9436 55.8878 31.9293 55.4321C30.8146 54.9312 29.2042 54.9115 28.1183 55.3853ZM60.9635 55.3153C60.894 55.4767 60.2284 57.3356 59.4844 59.4461C58.3316 62.7167 58.0693 63.3135 57.709 63.4863C57.3294 63.6682 57.3985 63.6881 58.3853 63.6809C59.2141 63.6749 59.3909 63.6367 59.104 63.5255C58.6266 63.3403 58.6302 63.0927 59.1322 61.5726L59.5363 60.3488L61.0585 60.3022L62.5808 60.2554L63.0323 61.5639C63.5507 63.066 63.5373 63.3902 62.9499 63.5478C62.7046 63.6137 63.1648 63.6669 64.0498 63.6751C65.3586 63.687 65.5148 63.6607 65.1655 63.4873C64.9421 63.3765 64.6888 63.1756 64.6024 63.041C64.516 62.9064 63.8202 61.0712 63.0561 58.9628C62.0397 56.1585 61.5893 55.1148 61.3782 55.0756C61.2196 55.0461 61.033 55.1539 60.9635 55.3153ZM99.1773 55.3153C99.1083 55.4767 98.4423 57.3356 97.6983 59.4461C96.5453 62.7167 96.2833 63.3135 95.9233 63.4863C95.5433 63.6682 95.6123 63.6881 96.5993 63.6809C97.4283 63.6749 97.6053 63.6367 97.3183 63.5255C96.8413 63.3403 96.8443 63.0927 97.3463 61.5726L97.7503 60.3488L99.2723 60.3022L100.795 60.2554L101.246 61.5639C101.765 63.066 101.751 63.3902 101.164 63.5478C100.918 63.6137 101.379 63.6669 102.264 63.6751C103.573 63.687 103.729 63.6607 103.379 63.4873C103.156 63.3765 102.903 63.1756 102.816 63.041C102.73 62.9064 102.034 61.0712 101.27 58.9628C100.254 56.1585 99.8033 55.1148 99.5923 55.0756C99.4343 55.0461 99.2473 55.1539 99.1773 55.3153ZM0.687281 55.4C0.898481 55.5038 1.11018 55.7418 1.15769 55.9293C1.20537 56.1166 1.22262 57.8463 1.19641 59.7731L1.14856 63.2763L0.725841 63.4825C0.352661 63.6646 0.471861 63.6889 1.74037 63.6889C3.00837 63.6889 3.12775 63.6646 2.75491 63.4829C2.34859 63.285 2.33033 63.2088 2.28416 61.5274L2.23614 59.7778H3.203C5.52778 59.7778 6.85298 58.0579 5.80528 56.4002C5.24628 55.5153 4.61878 55.3088 2.33219 55.2572C0.710451 55.2205 0.380221 55.2492 0.687281 55.4ZM13.1147 55.4674L13.5829 55.7123L13.5374 59.4944L13.4921 63.2763L13.0694 63.4825C12.6962 63.6646 12.8154 63.6889 14.0839 63.6889C15.3524 63.6889 15.4716 63.6646 15.0985 63.4825L14.6757 63.2763L14.6304 59.4944L14.5849 55.7123L15.0531 55.4674C15.5004 55.2332 15.4573 55.2223 14.0839 55.2223C12.7106 55.2223 12.6675 55.2332 13.1147 55.4674ZM29.2174 55.3572C28.0137 55.6459 27.0842 56.5609 26.6884 57.8471C26.0061 60.0638 26.8104 62.462 28.5238 63.3205C29.8297 63.9748 31.9702 63.4364 32.8023 62.2445C33.8268 60.7767 33.772 57.9892 32.6897 56.5227C32.0319 55.6313 30.383 55.0777 29.2174 55.3572ZM43.6746 55.3225C44.2999 55.5382 44.3509 55.85 44.3509 59.4515C44.3509 63.0529 44.2999 63.3647 43.6746 63.5804C43.5351 63.6286 44.6108 63.6738 46.0653 63.6808L48.7095 63.6937L48.8238 63.106C48.8868 62.7827 48.8952 62.4768 48.8426 62.4261C48.7902 62.3755 48.7473 62.4197 48.7473 62.5243C48.7473 62.629 48.5951 62.8615 48.4091 63.041C48.1313 63.3091 47.8455 63.3673 46.8086 63.3673C45.2437 63.3673 45.1964 63.3031 45.1964 61.1754V59.6146L46.3377 59.6171C47.5613 59.6198 47.7407 59.6797 48.0379 60.1857C48.1975 60.4572 48.2305 60.3485 48.2349 59.5374C48.2398 58.6095 48.2275 58.5803 47.9767 58.9256C47.7449 59.2452 47.5638 59.2883 46.4549 59.2883H45.1964V57.4119V55.5356H46.5168C47.87 55.5356 48.2041 55.6561 48.552 56.2698C48.7102 56.549 48.7378 56.4961 48.7422 55.9027L48.7473 55.2092L46.0841 55.2221C44.6193 55.2291 43.5351 55.2743 43.6746 55.3225ZM49.9261 55.3908C50.1559 55.4794 50.4021 55.64 50.473 55.7477C50.544 55.8554 50.6032 57.5263 50.6047 59.4611C50.6072 63.0536 50.5563 63.3647 49.9309 63.5804C49.7914 63.6286 50.324 63.6679 51.1145 63.6679C52.2376 63.6679 52.454 63.6333 52.1044 63.5096C51.5426 63.3111 51.4579 62.9994 51.4551 61.1239C51.4529 59.6998 51.4726 59.6146 51.8071 59.6146C52.0019 59.6146 52.3842 59.7416 52.6563 59.8967C53.161 60.1844 53.3565 60.4314 54.7252 62.5107L55.5041 63.6937L56.3952 63.6808C56.8852 63.6738 57.1721 63.6276 57.0326 63.5785C56.5347 63.4028 56.0014 62.7973 55.2379 61.5409C54.8118 60.8395 54.2586 60.1021 54.0086 59.9023L53.554 59.5391L54.0555 59.2912C55.2183 58.7166 55.6319 57.1957 54.8906 56.2197C54.2709 55.4039 53.5996 55.2088 51.4527 55.2198C49.9961 55.2274 49.613 55.2703 49.9261 55.3908ZM66.4631 55.4C66.6743 55.5038 66.886 55.7418 66.9335 55.9293C66.9812 56.1166 66.9984 57.8463 66.9722 59.7731L66.9244 63.2763L66.5016 63.4825C66.1285 63.6646 66.2477 63.6889 67.5162 63.6889C68.7842 63.6889 68.9036 63.6646 68.5307 63.4829C68.1244 63.285 68.1061 63.2088 68.06 61.5274L68.0119 59.7778H68.9788C71.3036 59.7778 72.6288 58.0579 71.5811 56.4002C71.0221 55.5153 70.3946 55.3088 68.108 55.2572C66.4863 55.2205 66.156 55.2492 66.4631 55.4ZM72.927 55.3225C73.5523 55.5382 73.6034 55.85 73.6034 59.4515C73.6034 63.0529 73.5523 63.3647 72.927 63.5804C72.7875 63.6286 73.8633 63.6738 75.3178 63.6808L77.962 63.6937L78.0763 63.106C78.1392 62.7827 78.1477 62.4768 78.0951 62.4261C78.0427 62.3755 77.9997 62.4197 77.9997 62.5243C77.9997 62.629 77.8475 62.8615 77.6615 63.041C77.3837 63.3091 77.098 63.3673 76.0611 63.3673C74.4962 63.3673 74.4488 63.3031 74.4488 61.1754V59.6146L75.5902 59.6171C76.8137 59.6198 76.9931 59.6797 77.2904 60.1857C77.45 60.4572 77.483 60.3485 77.4874 59.5374C77.4923 58.6095 77.4799 58.5803 77.2292 58.9256C76.9974 59.2452 76.8163 59.2883 75.7074 59.2883H74.4488V57.4119V55.5356H75.7693C77.1225 55.5356 77.4566 55.6561 77.8044 56.2698C77.9627 56.549 77.9903 56.4961 77.9946 55.9027L77.9997 55.2092L75.3366 55.2221C73.8717 55.2291 72.7875 55.2743 72.927 55.3225ZM79.0988 55.4042C79.2848 55.506 79.4929 55.669 79.5613 55.7664C79.6296 55.8638 79.6866 57.2052 79.6881 58.7474C79.6908 61.7318 79.7802 62.1913 80.5046 62.9387C81.7767 64.2517 84.4187 64.1438 85.3198 62.7421L85.5998 62.3068L85.6042 63.0002L85.6087 63.6937L86.581 63.6834C87.3154 63.6756 87.4628 63.6379 87.1838 63.5294C86.5257 63.2735 86.4542 62.8741 86.4542 59.4515C86.4542 56.0288 86.5257 55.6294 87.1838 55.3735C87.4366 55.2753 87.0727 55.2308 86.0315 55.2324C84.8139 55.2345 84.6027 55.2678 84.975 55.399C85.2391 55.492 85.4829 55.7266 85.5387 55.9414C85.5929 56.1495 85.6118 57.6066 85.5807 59.1795C85.5293 61.7837 85.4924 62.0802 85.1683 62.4993C84.3485 63.5594 82.6894 63.9268 81.7555 63.2551C80.7623 62.5408 80.6308 62.0745 80.5618 59.0259C80.4948 56.0624 80.576 55.6418 81.2657 55.3735C81.5227 55.2737 81.1974 55.2283 80.1979 55.2246C79.0423 55.2202 78.8269 55.2554 79.0988 55.4042ZM2.24764 57.5958V59.6561L3.1056 59.5766C3.58298 59.5324 4.16448 59.3532 4.41608 59.1731C5.31158 58.5319 5.32758 56.8508 4.44628 56.0006C4.04318 55.6114 3.82438 55.5356 3.10611 55.5356H2.24764V57.5958ZM51.4527 57.4322V59.3288L52.4113 59.2521C53.6828 59.1503 54.1581 58.6649 54.1581 57.4681C54.1581 56.7497 54.0851 56.5746 53.5832 56.0903C53.0961 55.6202 52.8896 55.5356 52.2305 55.5356H51.4527V57.4322ZM68.0234 57.5958V59.6561L68.8814 59.5766C69.3587 59.5324 69.9402 59.3532 70.1918 59.1731C71.0873 58.5319 71.1034 56.8508 70.2221 56.0006C69.819 55.6114 69.6002 55.5356 68.8819 55.5356H68.0234V57.5958ZM60.3645 57.8742C60.0199 58.8845 59.7381 59.7626 59.7381 59.8259C59.7381 59.8892 60.3451 59.9409 61.0869 59.9409H62.4357L61.7419 58.0238C61.3605 56.9693 61.0355 56.0911 61.0196 56.072C61.0039 56.0531 60.7091 56.864 60.3645 57.8742ZM98.5783 57.8742C98.2343 58.8845 97.9523 59.7626 97.9523 59.8259C97.9523 59.8892 98.5593 59.9409 99.3013 59.9409H100.65L99.9563 58.0238C99.5743 56.9693 99.2493 56.0911 99.2343 56.072C99.2183 56.0531 98.9233 56.864 98.5783 57.8742Z" fill="#171A23"/>
<path d="M0.540283 66.8727H103.04" stroke="#0C8093"/>
<path fill-rule="evenodd" clip-rule="evenodd" d="M213.854 18.0072C212.899 18.0947 212.067 18.4127 211.12 19.0526C210.642 19.3757 210.351 19.6639 210.08 20.0822C209.779 20.5454 209.62 21.0648 209.603 21.6364L209.597 21.8484L209.54 21.7868C209.508 21.7529 209.431 21.666 209.368 21.5937C209.114 21.3032 208.814 21.0675 208.497 20.9088C208.182 20.7517 207.87 20.6709 207.409 20.6274C207.219 20.6094 206.512 20.6095 206.345 20.6276C205.826 20.6836 205.393 20.7972 205.082 20.9592C205.033 20.9851 204.996 21.0099 205 21.0143C205.005 21.0188 205.069 21.0533 205.142 21.091C205.37 21.2086 205.561 21.3649 205.718 21.5631C205.826 21.7 205.893 21.8122 206.023 22.0755C206.162 22.3587 206.313 22.6393 206.378 22.739C206.459 22.8616 206.564 22.9832 206.662 23.066C206.904 23.27 207.214 23.4308 207.517 23.5083C207.745 23.5666 207.816 23.5753 208.07 23.5751C208.288 23.5749 208.313 23.5729 208.42 23.5473C208.623 23.4985 208.83 23.3958 208.986 23.2664C209.034 23.2259 209.058 23.1993 209.058 23.1842C209.058 23.1393 208.918 22.9048 208.782 22.7234C208.448 22.2747 207.988 21.8987 207.424 21.6132C207 21.3988 206.607 21.2623 206.073 21.1441C205.955 21.1179 205.833 21.0908 205.802 21.0839L205.746 21.0714L205.802 21.0632C205.866 21.0539 206.132 21.0618 206.263 21.0768C206.756 21.1332 207.284 21.2966 207.804 21.5544C208.076 21.6893 208.429 21.9062 208.62 22.0564C209.06 22.4012 209.335 22.8668 209.431 23.429C209.478 23.7038 209.549 24.8545 209.564 25.5866C209.567 25.7381 209.572 25.9111 209.575 25.9711C209.578 26.0311 209.576 26.0867 209.571 26.0945C209.565 26.1038 209.502 26.1174 209.389 26.1334C208.577 26.2496 207.909 26.4935 207.253 26.914C207.187 26.9564 207.133 26.9931 207.133 26.9956C207.133 26.998 208.44 27 210.038 27H212.942L212.86 26.9441C212.233 26.5176 211.445 26.2315 210.594 26.1212C210.484 26.107 210.394 26.0942 210.392 26.0927C210.389 26.089 210.341 25.5177 210.322 25.2488C210.314 25.1288 210.304 25.0002 210.301 24.963C210.255 24.3739 210.214 23.6398 210.214 23.3998C210.214 22.7788 210.323 22.205 210.537 21.6894C210.937 20.728 211.24 20.2242 211.73 19.7111C212.043 19.3826 212.373 19.1162 212.978 18.7044C213.381 18.4301 213.385 18.4336 213.027 18.746C212.89 18.8649 212.672 19.0544 212.541 19.1672C212.41 19.28 212.262 19.4116 212.211 19.4595C211.617 20.023 211.1 20.8631 210.836 21.6947C210.739 22.0008 210.644 22.4865 210.644 22.6818C210.644 22.7369 210.648 22.7523 210.666 22.7695C210.708 22.8089 210.93 22.8844 211.126 22.9257C211.238 22.9494 211.468 22.9693 211.547 22.9622C211.697 22.9487 211.73 22.9444 211.801 22.9297C212.259 22.835 212.713 22.5076 213.002 22.0635C213.21 21.7438 213.388 21.2444 213.474 20.7436C213.506 20.5566 213.527 20.3875 213.592 19.7875C213.621 19.5275 213.656 19.2328 213.67 19.1328C213.727 18.7369 213.812 18.428 213.945 18.124L214 18L213.947 18.0017C213.918 18.0027 213.876 18.0052 213.854 18.0072Z" fill="#B8EFE2"/>
</svg>
