<svg width="252" height="98" viewBox="0 0 252 98" fill="none" xmlns="http://www.w3.org/2000/svg">
<path fill-rule="evenodd" clip-rule="evenodd" d="M113.396 9.35459C112.588 10.5799 111.58 12.25 111.156 13.0667L110.386 14.5516L112.012 13.0667C112.906 12.25 114.435 10.5799 115.411 9.35459C117.003 7.35539 117.066 7.12732 116.025 7.12732C115.342 7.12732 114.261 8.04377 113.396 9.35459ZM36.9519 17.0402C36.6375 17.6311 34.5793 23.7279 32.3785 30.5879C27.865 44.6578 27.2148 46.1747 25.3771 46.9141C24.4208 47.299 25.1055 47.4398 27.934 47.4398C30.8266 47.4398 31.4614 47.3049 30.4599 46.9028C28.7898 46.2317 28.7934 45.3509 30.4873 39.794L31.8447 35.3394L37.2627 35.1696L42.6807 34.9991L44.2224 39.6259C46.2361 45.6686 46.2224 46.7728 44.1297 47.0899C43.2305 47.2259 44.7169 47.3774 47.4319 47.4261L52.3685 47.5152L50.8553 46.1788C49.7243 45.1798 48.0892 41.2462 44.3764 30.5879C39.4059 16.3221 38.3545 14.4031 36.9519 17.0402ZM131.503 16.9867C128.441 18.1128 124.301 22.0174 122.751 25.2425C121.351 28.154 120.893 33.9057 121.796 37.2543C122.773 40.8845 125.833 44.5384 129.496 46.4503C134.934 49.2893 142.082 48.6324 147.056 44.8377C147.686 44.3572 148.034 43.7971 147.83 43.5928C147.626 43.3891 146.789 43.749 145.97 44.3929C142.176 47.375 134.891 47.6482 130.828 44.9613C125.299 41.305 123.361 31.2122 126.828 24.1306C129.627 18.4128 134.638 15.8755 140.4 17.257C143.573 18.0178 147.39 20.8651 147.405 22.483C147.413 23.3312 147.491 23.3425 147.991 22.5697C148.307 22.0797 148.571 20.6097 148.576 19.3031C148.585 16.9701 148.545 16.9255 146.356 16.824C145.131 16.7675 141.854 16.5721 139.075 16.3904C135.303 16.1439 133.385 16.2948 131.503 16.9867ZM6.53775 17.0425C8.73562 17.8277 8.91511 18.9627 8.91511 32.0728C8.91511 45.1828 8.73562 46.3178 6.53775 47.103C6.04742 47.2782 7.91959 47.4214 10.6981 47.4214C14.6457 47.4214 15.4065 47.2954 14.1774 46.8452C12.203 46.1224 11.9052 44.988 11.8951 38.1607L11.8868 32.6667H16.3212C20.1178 32.6667 20.9297 32.8538 21.9674 33.9668L23.1793 35.2664V32.0728V28.8792L21.9674 30.1787C20.9297 31.2917 20.1178 31.4788 16.3212 31.4788H11.8868V24.6485V17.8182H16.2956C21.5942 17.8182 22.4768 18.1075 23.3397 20.1263L24.003 21.6788L24.2295 19.9956C24.68 16.6559 24.595 16.6262 14.7283 16.6773C9.73352 16.7028 6.04742 16.8673 6.53775 17.0425ZM55.2736 17.0063C57.4804 17.8842 57.651 18.9663 57.651 32.0728C57.651 45.1828 57.4715 46.3178 55.2736 47.103C54.7833 47.2782 57.667 47.4427 61.6818 47.4683C69.958 47.5217 71.9591 46.9676 74.5326 43.9106C75.9881 42.1828 76.1676 41.555 75.9263 39.045C75.5929 35.5788 72.9326 32.4309 69.6881 31.6641L67.6145 31.1747L69.8932 29.6935C71.3035 28.7764 72.4875 27.3783 73.001 26.0217C73.7469 24.0546 73.7183 23.6044 72.7246 21.6058C70.7312 17.5967 69.2049 16.9523 61.3258 16.7925C57.5071 16.7153 54.7833 16.8115 55.2736 17.0063ZM80.533 17.3021C81.1868 17.6935 81.9184 18.3041 82.1586 18.6587C82.3987 19.0132 82.599 25.0649 82.6043 32.1078C82.6132 45.1852 82.4343 46.3178 80.2359 47.103C79.7455 47.2782 81.6177 47.4214 84.3962 47.4214C88.3438 47.4214 89.1046 47.2954 87.8755 46.8452C85.9011 46.1224 85.6034 44.988 85.5932 38.1607C85.5849 32.7861 85.6152 32.6667 86.9828 32.6667C89.4897 32.6667 92.1405 35.2325 95.8819 41.2788L99.5567 47.2182L102.823 47.3388C104.62 47.4053 105.688 47.3043 105.198 47.1149C103.426 46.4295 101.563 44.2343 98.8975 39.6918C97.4046 37.1462 95.4272 34.4283 94.5036 33.6521L92.8252 32.2409L94.6605 31.4141C97.3754 30.1918 98.8583 27.8261 98.8583 24.718C98.8583 21.7691 97.6791 19.5585 95.2614 17.975C94.002 17.1506 92.1375 16.8917 86.5032 16.7586C80.731 16.6232 79.5744 16.7283 80.533 17.3021ZM108.764 17.3989L110.25 18.1502V32.0728V45.9953L108.764 46.7466C107.452 47.4095 107.87 47.498 112.33 47.498C116.79 47.498 117.208 47.4095 115.896 46.7466L114.41 45.9953V32.0728V18.1502L115.896 17.3989C117.208 16.7361 116.79 16.6476 112.33 16.6476C107.87 16.6476 107.452 16.7361 108.764 17.3989ZM152.151 17.3989L153.637 18.1502V32.0728V45.9953L152.151 46.7466C150.839 47.4095 151.257 47.498 155.717 47.498C160.177 47.498 160.595 47.4095 159.283 46.7466L157.797 45.9953V32.0728V18.1502L159.283 17.3989C160.595 16.7361 160.177 16.6476 155.717 16.6476C151.257 16.6476 150.839 16.7361 152.151 17.3989ZM61.0191 18.2144C60.801 18.4318 60.6227 21.4062 60.6227 24.8231V31.0358L63.7079 30.74C67.8296 30.3438 69.5378 28.4759 69.5378 24.364C69.5378 21.9277 69.2501 21.1859 67.709 19.6458C66.3158 18.2536 65.3483 17.8182 63.6478 17.8182C62.4199 17.8182 61.2366 17.9964 61.0191 18.2144ZM85.5849 24.6485V31.4788H88.6024C91.145 31.4788 91.8932 31.2056 93.3571 29.7427C94.8299 28.271 95.0944 27.538 95.0944 24.9318C95.0944 22.227 94.8513 21.6141 93.0736 19.8376C91.3613 18.1265 90.6356 17.8182 88.3189 17.8182H85.5849V24.6485ZM34.8907 26.3312C33.6795 30.0088 32.6887 33.2054 32.6887 33.4359C32.6887 33.6663 34.8099 33.8546 37.403 33.8546H42.1167L39.7911 26.9364C38.512 23.131 37.3816 19.9338 37.2788 19.8317C37.1766 19.7295 36.102 22.6541 34.8907 26.3312ZM60.7189 38.6287C60.9472 46.085 61.0839 46.3042 65.5165 46.3184C70.8976 46.3356 74.0464 41.1315 71.6756 36.1383C70.3288 33.3022 67.9764 32.0728 63.8957 32.0728H60.5175L60.7189 38.6287ZM224.307 51.0218C219.61 53.1529 217.877 58.8707 220.671 63.0182C221.418 64.1283 223.805 66.1055 225.974 67.4122C231.123 70.5131 232.883 72.2266 233.322 74.562C234.245 79.4792 229.381 82.5451 224.087 80.3826C221.961 79.5143 221.109 78.7226 220.054 76.636L218.717 73.9906L218.726 78.1256C218.732 80.8293 218.921 81.9661 219.274 81.4101C219.719 80.7069 220.217 80.6814 222.156 81.2616C228.212 83.0749 233.69 81.5651 235.593 77.5584C237.883 72.7345 236.154 69.548 228.827 65.0905C223.119 61.6177 222.119 60.2528 222.497 56.4439C223.129 50.0721 231.328 48.9395 233.91 54.867C234.711 56.7064 234.718 56.6933 234.741 53.2336C234.759 50.5205 234.599 49.8773 234.021 50.3388C233.598 50.6767 232.767 50.726 232.09 50.4534C230.058 49.635 226.845 49.8696 224.307 51.0218ZM110.25 51.1762C110.904 51.5368 112.174 52.5144 113.073 53.3483L114.708 54.8646L114.699 66.1869C114.695 72.4143 114.533 78.0977 114.34 78.8164C114.148 79.5357 113.282 80.3832 112.417 80.6998C111.132 81.1708 111.605 81.283 115.005 81.3139C118.732 81.3484 119.011 81.2741 117.679 80.6018L116.193 79.851L116.032 68.0257C115.943 61.5221 115.968 56.3174 116.086 56.4611C116.205 56.6042 121.493 62.4611 127.838 69.4767L139.373 82.2321L139.67 67.2975C139.833 59.0839 140.101 52.2471 140.264 52.1058C140.428 51.9638 141.096 51.5492 141.75 51.1846C142.712 50.6476 142.146 50.5265 138.778 50.5496C135.282 50.574 134.879 50.6738 136.254 51.1756C137.153 51.5041 138.032 52.3516 138.205 53.059C138.38 53.7664 138.446 59.2134 138.353 65.1629L138.184 75.9803L126.711 63.2326L115.238 50.4849L112.15 50.5027C109.571 50.5182 109.257 50.6292 110.25 51.1762ZM146.802 50.8971C149 51.6823 149.179 52.8173 149.179 65.9273C149.179 79.0373 149 80.1724 146.802 80.9575C146.312 81.1328 150.093 81.2973 155.205 81.3228L164.5 81.3697L164.901 79.2304C165.122 78.0538 165.152 76.9401 164.967 76.7554C164.783 76.5713 164.632 76.7323 164.632 77.113C164.632 77.4943 164.097 78.3406 163.443 78.994C162.467 79.9698 161.462 80.1819 157.818 80.1819C152.317 80.1819 152.151 79.9479 152.151 72.2029V66.5213L156.163 66.5302C160.463 66.5403 161.094 66.7582 162.139 68.6C162.7 69.5884 162.816 69.1928 162.831 66.2403C162.848 62.8626 162.805 62.7563 161.924 64.0131C161.109 65.1766 160.472 65.3334 156.575 65.3334H152.151V58.5031V51.6728H156.792C161.549 51.6728 162.723 52.1117 163.946 54.3455C164.502 55.3617 164.599 55.1693 164.614 53.0091L164.632 50.4849L155.271 50.5318C150.123 50.5574 146.312 50.7219 146.802 50.8971ZM197.915 50.8971C200.113 51.6823 200.292 52.8173 200.292 65.9273C200.292 79.0373 200.113 80.1724 197.915 80.9575C197.425 81.1328 201.206 81.2973 206.318 81.3228L215.613 81.3697L216.015 79.2304C216.236 78.0538 216.265 76.9401 216.08 76.7554C215.896 76.5713 215.745 76.7323 215.745 77.113C215.745 77.4943 215.21 78.3406 214.557 78.994C213.58 79.9698 212.576 80.1819 208.931 80.1819C203.431 80.1819 203.264 79.9479 203.264 72.2029V66.5213L207.276 66.5302C211.577 66.5403 212.207 66.7582 213.252 68.6C213.813 69.5884 213.929 69.1928 213.944 66.2403C213.962 62.8626 213.918 62.7563 213.037 64.0131C212.222 65.1766 211.586 65.3334 207.688 65.3334H203.264V58.5031V51.6728H207.905C212.662 51.6728 213.836 52.1117 215.059 54.3455C215.615 55.3617 215.712 55.1693 215.727 53.0091L215.745 50.4849L206.384 50.5318C201.236 50.5574 197.425 50.7219 197.915 50.8971Z" fill="#171A23"/>
<path fill-rule="evenodd" clip-rule="evenodd" d="M175.605 16.9813C164.796 20.817 161.725 35.1636 169.953 43.3861C176.895 50.3233 188.176 49.5315 194.164 41.6868C199.445 34.7674 197.969 24.5837 190.904 19.1991C186.73 16.0173 180.761 15.152 175.605 16.9813ZM177.141 17.4054C170.479 19.5275 167.006 29.4095 169.717 38.5312C172.231 46.9901 182.462 50.2496 189.067 44.6951C195.22 39.5213 195.472 25.2477 189.508 19.7687C186.535 17.0377 181.385 16.0536 177.141 17.4054ZM167.922 51.0503C168.587 51.3193 169.447 51.921 169.834 52.3866C170.221 52.8517 172.978 59.6303 175.961 67.4495C178.943 75.2693 181.461 81.7462 181.555 81.8436C181.732 82.0266 182.361 80.3136 188.38 63.2545C190.955 55.955 192.367 52.7875 193.476 51.8212L195.01 50.4848L191.262 50.5222C188.582 50.5496 187.871 50.7046 188.769 51.0669C189.459 51.3454 190.195 52.0202 190.404 52.566C190.708 53.3571 183.641 75.6376 182.829 76.4495C182.502 76.7761 174.142 54.1494 174.142 52.9396C174.142 52.3427 174.744 51.564 175.479 51.2094C176.553 50.6921 175.823 50.565 171.764 50.5626C168.533 50.5608 167.148 50.7367 167.922 51.0503Z" fill="#0C8093"/>
<path fill-rule="evenodd" clip-rule="evenodd" d="M41.511 63.0243L41.5112 64.0497L41.807 63.4834C42.1423 62.841 42.506 62.7028 43.9233 62.6792L44.8986 62.6629L44.8533 66.5332L44.808 70.4036L44.3852 70.6098C44.012 70.7919 44.1311 70.8162 45.3998 70.8162C46.6684 70.8162 46.7875 70.7919 46.4143 70.6098L45.9916 70.4036L45.9463 66.5332L45.9009 62.6629H46.8088C48.0895 62.6629 48.7493 62.9229 49.0288 63.5379C49.2587 64.0442 49.2614 64.0387 49.275 63.03C49.2876 62.0947 49.1292 61.7627 48.8661 62.1734C48.7237 62.3956 42.2691 62.3904 41.8377 62.1677C41.5305 62.0089 41.5107 62.061 41.511 63.0243ZM94.6051 63.0243L94.6053 64.0497L94.901 63.4834C95.2363 62.841 95.6001 62.7028 97.0174 62.6792L97.9927 62.6629L97.9474 66.5332L97.902 70.4036L97.4793 70.6098C97.1061 70.7919 97.2252 70.8162 98.4938 70.8162C99.7625 70.8162 99.8816 70.7919 99.5084 70.6098L99.0857 70.4036L99.0403 66.5332L98.995 62.6629H99.9029C101.184 62.6629 101.843 62.9229 102.123 63.5379C102.353 64.0442 102.356 64.0387 102.369 63.03C102.382 62.0947 102.223 61.7627 101.96 62.1734C101.818 62.3956 95.3632 62.3904 94.9318 62.1677C94.6246 62.0089 94.6048 62.061 94.6051 63.0243ZM14.8631 62.484C13.5269 63.0695 13.0339 64.6402 13.8286 65.7796C14.0413 66.0845 14.7202 66.6277 15.3375 66.9867C16.8022 67.8385 17.303 68.3093 17.4278 68.9508C17.6904 70.3016 16.3066 71.1439 14.8007 70.5498C14.1957 70.3113 13.9534 70.0938 13.6532 69.5206L13.2728 68.7938L13.2753 69.9298C13.277 70.6725 13.3309 70.9848 13.4312 70.8321C13.5579 70.6389 13.6996 70.6319 14.2513 70.7913C15.9741 71.2894 17.5326 70.8747 18.0739 69.774C18.7256 68.4488 18.2335 67.5734 16.149 66.3489C14.5251 65.3949 14.2406 65.0199 14.3482 63.9735C14.5281 62.2231 16.8607 61.912 17.5952 63.5404C17.8231 64.0457 17.825 64.0421 17.8316 63.0917C17.8367 62.3463 17.7912 62.1696 17.6268 62.2964C17.5064 62.3892 17.2699 62.4028 17.0773 62.3279C16.4993 62.1031 15.5852 62.1675 14.8631 62.484ZM25.6454 62.5903C24.6187 63.0926 23.5247 64.3057 23.2558 65.2403C22.8081 66.7958 23.154 68.4791 24.1569 69.6253C25.5723 71.2432 28.5544 71.4622 30.423 70.0854C30.6022 69.9534 30.6978 69.7962 30.6354 69.7359C30.573 69.6757 30.3846 69.7464 30.2165 69.8931C29.7639 70.2884 28.55 70.6578 27.7032 70.6578C26.7462 70.6578 26.0069 70.3463 25.329 69.6575C24.5149 68.8302 24.2124 67.9919 24.2064 66.5463C24.202 65.4706 24.2731 65.1545 24.7005 64.348C25.2369 63.3361 25.9355 62.7683 26.9775 62.4976C28.2396 62.1696 30.1381 62.9011 30.4448 63.8337C30.61 64.3359 30.8523 63.8859 30.8555 63.0708C30.8581 62.4302 30.8464 62.4176 30.224 62.3886C29.8753 62.3724 28.9051 62.3121 28.0681 62.2543C26.6384 62.1559 26.4917 62.1762 25.6454 62.5903ZM34.578 62.5126C32.8768 63.2548 31.8745 64.7642 31.878 66.5788C31.8873 71.3485 38.6134 72.7244 40.6519 68.3735C41.0455 67.5336 41.1132 66.0728 40.8046 65.0788C40.5281 64.1883 39.4033 63.0151 38.389 62.5594C37.2743 62.0585 35.6639 62.0388 34.578 62.5126ZM67.4232 62.4426C67.3537 62.604 66.6881 64.4629 65.9441 66.5734C64.7913 69.844 64.529 70.4408 64.1687 70.6136C63.7891 70.7955 63.8582 70.8154 64.845 70.8082C65.6738 70.8022 65.8506 70.764 65.5637 70.6528C65.0863 70.4676 65.0899 70.22 65.5919 68.6999L65.996 67.4761L67.5182 67.4295L69.0405 67.3827L69.492 68.6912C70.0104 70.1933 69.997 70.5175 69.4096 70.6751C69.1643 70.741 69.6245 70.7942 70.5095 70.8024C71.8183 70.8143 71.9745 70.788 71.6252 70.6146C71.4018 70.5038 71.1485 70.3029 71.0621 70.1683C70.9757 70.0337 70.2799 68.1985 69.5158 66.0901C68.4994 63.2858 68.049 62.2421 67.8379 62.2029C67.6793 62.1734 67.4927 62.2812 67.4232 62.4426ZM105.637 62.4426C105.568 62.604 104.902 64.4629 104.158 66.5734C103.005 69.844 102.743 70.4408 102.383 70.6136C102.003 70.7955 102.072 70.8154 103.059 70.8082C103.888 70.8022 104.065 70.764 103.778 70.6528C103.301 70.4676 103.304 70.22 103.806 68.6999L104.21 67.4761L105.732 67.4295L107.255 67.3827L107.706 68.6912C108.225 70.1933 108.211 70.5175 107.624 70.6751C107.378 70.741 107.839 70.7942 108.724 70.8024C110.033 70.8143 110.189 70.788 109.839 70.6146C109.616 70.5038 109.363 70.3029 109.276 70.1683C109.19 70.0337 108.494 68.1985 107.73 66.0901C106.714 63.2858 106.263 62.2421 106.052 62.2029C105.894 62.1734 105.707 62.2812 105.637 62.4426ZM7.147 62.5273C7.3582 62.6311 7.5699 62.8691 7.61741 63.0566C7.66509 63.2439 7.68234 64.9736 7.65613 66.9004L7.60828 70.4036L7.18556 70.6098C6.81238 70.7919 6.93158 70.8162 8.20009 70.8162C9.46809 70.8162 9.58747 70.7919 9.21463 70.6102C8.80831 70.4123 8.79005 70.3361 8.74388 68.6547L8.69586 66.9051H9.66272C11.9875 66.9051 13.3127 65.1852 12.265 63.5275C11.706 62.6426 11.0785 62.4361 8.79191 62.3845C7.17017 62.3478 6.83994 62.3765 7.147 62.5273ZM19.5744 62.5947L20.0426 62.8396L19.9971 66.6217L19.9518 70.4036L19.5291 70.6098C19.1559 70.7919 19.2751 70.8162 20.5436 70.8162C21.8121 70.8162 21.9313 70.7919 21.5582 70.6098L21.1354 70.4036L21.0901 66.6217L21.0446 62.8396L21.5128 62.5947C21.9601 62.3605 21.917 62.3496 20.5436 62.3496C19.1703 62.3496 19.1272 62.3605 19.5744 62.5947ZM35.6771 62.4845C34.4734 62.7732 33.5439 63.6882 33.1481 64.9744C32.4658 67.1911 33.2701 69.5893 34.9835 70.4478C36.2894 71.1021 38.4299 70.5637 39.262 69.3718C40.2865 67.904 40.2317 65.1165 39.1494 63.65C38.4916 62.7586 36.8427 62.205 35.6771 62.4845ZM50.1343 62.4498C50.7596 62.6655 50.8106 62.9773 50.8106 66.5788C50.8106 70.1802 50.7596 70.492 50.1343 70.7077C49.9948 70.7559 51.0705 70.8011 52.525 70.8081L55.1692 70.821L55.2835 70.2333C55.3465 69.91 55.3549 69.6041 55.3023 69.5534C55.2499 69.5028 55.207 69.547 55.207 69.6516C55.207 69.7563 55.0548 69.9888 54.8688 70.1683C54.591 70.4364 54.3052 70.4946 53.2683 70.4946C51.7034 70.4946 51.6561 70.4304 51.6561 68.3027V66.7419L52.7974 66.7444C54.021 66.7471 54.2004 66.807 54.4976 67.313C54.6572 67.5845 54.6902 67.4758 54.6946 66.6647C54.6995 65.7368 54.6872 65.7076 54.4364 66.0529C54.2046 66.3725 54.0235 66.4156 52.9146 66.4156H51.6561V64.5392V62.6629H52.9765C54.3297 62.6629 54.6638 62.7834 55.0117 63.3971C55.1699 63.6763 55.1975 63.6234 55.2019 63.03L55.207 62.3365L52.5438 62.3494C51.079 62.3564 49.9948 62.4016 50.1343 62.4498ZM56.3858 62.5181C56.6156 62.6067 56.8618 62.7673 56.9327 62.875C57.0037 62.9827 57.0629 64.6536 57.0644 66.5884C57.0669 70.1809 57.016 70.492 56.3906 70.7077C56.2511 70.7559 56.7837 70.7952 57.5742 70.7952C58.6973 70.7952 58.9137 70.7606 58.5641 70.6369C58.0023 70.4384 57.9176 70.1267 57.9148 68.2512C57.9126 66.8271 57.9323 66.7419 58.2668 66.7419C58.4616 66.7419 58.8439 66.8689 59.116 67.024C59.6207 67.3117 59.8162 67.5587 61.1849 69.638L61.9638 70.821L62.8549 70.8081C63.3449 70.8011 63.6318 70.7549 63.4923 70.7058C62.9944 70.5301 62.4611 69.9246 61.6976 68.6682C61.2715 67.9668 60.7183 67.2294 60.4683 67.0296L60.0137 66.6664L60.5152 66.4185C61.678 65.8439 62.0916 64.323 61.3503 63.347C60.7306 62.5312 60.0593 62.3361 57.9124 62.3471C56.4558 62.3547 56.0727 62.3976 56.3858 62.5181ZM72.9228 62.5273C73.134 62.6311 73.3457 62.8691 73.3932 63.0566C73.4409 63.2439 73.4581 64.9736 73.4319 66.9004L73.3841 70.4036L72.9613 70.6098C72.5882 70.7919 72.7074 70.8162 73.9759 70.8162C75.2439 70.8162 75.3633 70.7919 74.9904 70.6102C74.5841 70.4123 74.5658 70.3361 74.5197 68.6547L74.4716 66.9051H75.4385C77.7633 66.9051 79.0885 65.1852 78.0408 63.5275C77.4818 62.6426 76.8543 62.4361 74.5677 62.3845C72.946 62.3478 72.6157 62.3765 72.9228 62.5273ZM79.3867 62.4498C80.012 62.6655 80.0631 62.9773 80.0631 66.5788C80.0631 70.1802 80.012 70.492 79.3867 70.7077C79.2472 70.7559 80.323 70.8011 81.7775 70.8081L84.4217 70.821L84.536 70.2333C84.5989 69.91 84.6074 69.6041 84.5548 69.5534C84.5024 69.5028 84.4594 69.547 84.4594 69.6516C84.4594 69.7563 84.3072 69.9888 84.1212 70.1683C83.8434 70.4364 83.5577 70.4946 82.5208 70.4946C80.9559 70.4946 80.9085 70.4304 80.9085 68.3027V66.7419L82.0499 66.7444C83.2734 66.7471 83.4528 66.807 83.7501 67.313C83.9097 67.5845 83.9427 67.4758 83.9471 66.6647C83.952 65.7368 83.9396 65.7076 83.6889 66.0529C83.4571 66.3725 83.276 66.4156 82.1671 66.4156H80.9085V64.5392V62.6629H82.229C83.5822 62.6629 83.9163 62.7834 84.2641 63.3971C84.4224 63.6763 84.45 63.6234 84.4543 63.03L84.4594 62.3365L81.7963 62.3494C80.3314 62.3564 79.2472 62.4016 79.3867 62.4498ZM85.5585 62.5315C85.7445 62.6333 85.9526 62.7963 86.021 62.8937C86.0893 62.9911 86.1463 64.3325 86.1478 65.8747C86.1505 68.8591 86.2399 69.3186 86.9643 70.066C88.2364 71.379 90.8784 71.2711 91.7795 69.8694L92.0595 69.4341L92.0639 70.1275L92.0684 70.821L93.0407 70.8107C93.7751 70.8029 93.9225 70.7652 93.6435 70.6567C92.9854 70.4008 92.9139 70.0014 92.9139 66.5788C92.9139 63.1561 92.9854 62.7567 93.6435 62.5008C93.8963 62.4026 93.5324 62.3581 92.4912 62.3597C91.2736 62.3618 91.0624 62.3951 91.4347 62.5263C91.6988 62.6193 91.9426 62.8539 91.9984 63.0687C92.0526 63.2768 92.0715 64.7339 92.0404 66.3068C91.989 68.911 91.9521 69.2075 91.628 69.6266C90.8082 70.6867 89.1491 71.0541 88.2152 70.3824C87.222 69.6681 87.0905 69.2018 87.0215 66.1532C86.9545 63.1897 87.0357 62.7691 87.7254 62.5008C87.9824 62.401 87.6571 62.3556 86.6576 62.3519C85.502 62.3475 85.2866 62.3827 85.5585 62.5315ZM8.70736 64.7231V66.7834L9.56532 66.7039C10.0427 66.6597 10.6242 66.4805 10.8758 66.3004C11.7713 65.6592 11.7873 63.9781 10.906 63.1279C10.5029 62.7387 10.2841 62.6629 9.56583 62.6629H8.70736V64.7231ZM57.9124 64.5595V66.4561L58.871 66.3794C60.1425 66.2776 60.6178 65.7922 60.6178 64.5954C60.6178 63.877 60.5448 63.7019 60.0429 63.2176C59.5558 62.7475 59.3493 62.6629 58.6902 62.6629H57.9124V64.5595ZM74.4831 64.7231V66.7834L75.3411 66.7039C75.8184 66.6597 76.3999 66.4805 76.6515 66.3004C77.547 65.6592 77.5631 63.9781 76.6818 63.1279C76.2787 62.7387 76.0599 62.6629 75.3416 62.6629H74.4831V64.7231ZM66.8242 65.0015C66.4796 66.0118 66.1978 66.8899 66.1978 66.9532C66.1978 67.0165 66.8048 67.0682 67.5466 67.0682H68.8954L68.2016 65.1511C67.8202 64.0966 67.4952 63.2184 67.4793 63.1993C67.4636 63.1804 67.1688 63.9913 66.8242 65.0015ZM105.038 65.0015C104.694 66.0118 104.412 66.8899 104.412 66.9532C104.412 67.0165 105.019 67.0682 105.761 67.0682H107.11L106.416 65.1511C106.034 64.0966 105.709 63.2184 105.694 63.1993C105.678 63.1804 105.383 63.9913 105.038 65.0015Z" fill="#0C8093"/>
<path d="M7 74H109.5" stroke="black"/>
</svg>
