<svg width="20" height="14" viewBox="0 0 20 14" fill="none" xmlns="http://www.w3.org/2000/svg">
<path fill-rule="evenodd" clip-rule="evenodd" d="M0.669772 0.0409778C0.613099 0.062121 0.439267 0.110727 0.283365 0.149107C0.0130863 0.215524 0 0.250226 0 0.90061V1.58248L0.386407 1.7021C0.924182 1.86872 19.0706 1.86722 19.6086 1.7006L20 1.57938L19.9693 0.92566C19.9395 0.291938 19.9275 0.267578 19.5779 0.134628C19.3089 0.0323595 16.8754 -0.00176858 9.99505 6.99586e-05C4.92282 0.00156377 0.726445 0.0199495 0.669772 0.0409778ZM0.334886 6.2033C0.00535818 6.30936 0 6.32212 0 6.99514C0 7.64322 0.014838 7.68367 0.283365 7.76744C0.439267 7.81605 4.86028 7.8558 10.108 7.8558C18.0436 7.8558 19.678 7.82926 19.8197 7.69815C19.9392 7.58749 19.9901 7.35745 19.9901 6.92792C19.9901 6.31798 19.9885 6.31488 19.6037 6.19572C19.1052 6.04128 0.815576 6.04852 0.334886 6.2033ZM0.334886 12.2935C0.00587337 12.3994 0 12.4131 0 13.0792V13.7572L0.540969 13.8876C1.36067 14.0852 19.4396 14.0012 19.7583 13.7983C19.9538 13.6737 19.9901 13.5533 19.9901 13.0281C19.9901 12.4065 19.9895 12.4053 19.6037 12.2859C19.1052 12.1314 0.815576 12.1387 0.334886 12.2935Z" fill="black"/>
</svg>
