<svg width="30" height="21" viewBox="0 0 30 21" fill="none" xmlns="http://www.w3.org/2000/svg">
<path fill-rule="evenodd" clip-rule="evenodd" d="M1.00466 0.0614667C0.919648 0.0931815 0.658901 0.166091 0.425047 0.22366C0.0196295 0.323286 0 0.37534 0 1.35091V2.37372L0.57961 2.55315C1.38627 2.80307 28.6058 2.80083 29.413 2.55091L30 2.36906L29.9539 1.38849C29.9093 0.437907 29.8912 0.401366 29.3669 0.201942C28.9633 0.0485392 25.313 -0.00265287 14.9926 0.000104938C7.38423 0.00234566 1.08967 0.0299242 1.00466 0.0614667ZM0.502329 9.30495C0.00803727 9.46405 0 9.48318 0 10.4927C0 11.4648 0.022257 11.5255 0.425047 11.6512C0.658901 11.7241 7.29041 11.7837 15.162 11.7837C27.0655 11.7837 29.517 11.7439 29.7295 11.5472C29.9088 11.3812 29.9852 11.0362 29.9852 10.3919C29.9852 9.47697 29.9827 9.47232 29.4056 9.29358C28.6578 9.06192 1.22336 9.07278 0.502329 9.30495ZM0.502329 18.4402C0.00881006 18.5991 0 18.6196 0 19.6188V20.6358L0.811454 20.8314C2.041 21.1279 29.1593 21.0019 29.6374 20.6975C29.9308 20.5106 29.9852 20.33 29.9852 19.5421C29.9852 18.6098 29.9842 18.6079 29.4056 18.4288C28.6578 18.1972 1.22336 18.208 0.502329 18.4402Z" fill="black"/>
</svg>
