<svg width="151" height="49" viewBox="0 0 151 49" fill="none" xmlns="http://www.w3.org/2000/svg">
<path fill-rule="evenodd" clip-rule="evenodd" d="M116.783 28.7122C116.783 28.7202 116.746 28.8103 116.699 28.9125C116.571 29.195 116.001 30.4775 115.982 30.5254C115.967 30.5645 115.926 30.5347 115.383 30.087C114.992 29.7642 114.809 29.6021 114.826 29.5929C114.84 29.5854 115.194 29.4234 115.613 29.2329C116.031 29.0424 116.466 28.844 116.579 28.7921C116.691 28.7401 116.783 28.7042 116.783 28.7122ZM112.319 28.744C112.42 28.7898 113.21 29.1407 113.851 29.4252C114.066 29.5205 114.244 29.6002 114.246 29.6025C114.249 29.6047 113.99 29.8222 113.672 30.0858L113.092 30.5651L113.032 30.44C112.552 29.4366 112.211 28.7115 112.217 28.7069C112.22 28.7038 112.266 28.7205 112.319 28.744ZM115.014 29.8802C115.113 29.9648 115.233 30.0655 115.278 30.1038L115.361 30.1736L115.176 30.6329L114.99 31.0923L114.532 31.0873L114.074 31.0822L113.897 30.6186L113.72 30.155L113.8 30.083C113.844 30.0435 113.935 29.9657 114.002 29.9103C114.069 29.8548 114.146 29.7908 114.173 29.768C114.22 29.729 114.241 29.7266 114.527 29.7264L114.832 29.7263L115.014 29.8802ZM114.994 31.2052C114.994 31.2265 115.08 32.1846 115.184 33.3343C115.388 35.5652 115.447 36.2219 115.508 36.8994C115.53 37.134 115.54 37.3366 115.532 37.3496C115.511 37.3842 114.574 38.4829 114.558 38.4928C114.551 38.4974 114.415 38.348 114.256 38.1608C114.098 37.9736 113.878 37.7151 113.768 37.5864C113.589 37.3782 113.567 37.3445 113.566 37.28C113.566 37.2089 114.049 31.4572 114.071 31.2647L114.083 31.1665H114.538C114.986 31.1665 114.994 31.1671 114.994 31.2052Z" fill="#0C8093"/>
<path fill-rule="evenodd" clip-rule="evenodd" d="M131.795 10.4586C131.128 10.535 130.564 10.9148 130.297 11.4677C130.227 11.6116 130.167 11.8025 130.149 11.9394C130.139 12.0111 130.135 12.8683 130.135 14.7269V17.4109L129.362 18.2055C128.748 18.8357 128.582 19.0137 128.558 19.0662C128.485 19.2225 128.547 19.4472 128.688 19.5366C128.778 19.5943 128.912 19.5858 129.44 19.4891C129.458 19.4858 129.53 19.4742 129.601 19.4633C129.672 19.4523 129.759 19.4375 129.794 19.4304C129.829 19.4232 129.881 19.414 129.91 19.41C129.938 19.4059 130.016 19.3936 130.083 19.3825C130.151 19.3714 130.22 19.3602 130.238 19.3576C130.278 19.3516 130.448 19.3236 130.753 19.2722C130.883 19.2502 131.011 19.2293 131.036 19.2258C131.06 19.2223 131.181 19.2037 131.304 19.1845C131.432 19.1645 131.545 19.1534 131.568 19.1584C131.59 19.1632 131.64 19.1727 131.679 19.1795C131.792 19.1993 142.427 19.2124 142.571 19.193C143.014 19.1333 143.406 18.9436 143.706 18.6444C143.943 18.4082 144.094 18.1357 144.161 17.828C144.184 17.7197 144.185 17.6084 144.185 14.822L144.185 11.9285L144.153 11.7976C144.028 11.2914 143.696 10.8903 143.206 10.652C142.973 10.5386 142.755 10.4784 142.481 10.4522C142.254 10.4306 131.986 10.4367 131.795 10.4586Z" fill="#0C8093"/>
<path fill-rule="evenodd" clip-rule="evenodd" d="M110.354 6.42896C103.302 8.93145 101.298 18.2915 106.667 23.656C111.196 28.182 118.556 27.6654 122.462 22.5474C125.908 18.033 124.945 11.3889 120.335 7.8759C117.612 5.80002 113.718 5.23548 110.354 6.42896ZM111.356 6.70565C107.01 8.09015 104.744 14.5374 106.513 20.4886C108.153 26.0074 114.828 28.1339 119.137 24.51C123.151 21.1345 123.316 11.8221 119.425 8.24752C117.485 6.46575 114.125 5.8237 111.356 6.70565ZM105.342 28.6563C105.775 28.8318 106.336 29.2244 106.589 29.5281C106.841 29.8316 108.64 34.2541 110.586 39.3555C112.532 44.4573 114.175 48.683 114.236 48.7465C114.351 48.8659 114.762 47.7483 118.689 36.6186C120.369 31.8563 121.29 29.7897 122.014 29.1593L123.014 28.2874L120.569 28.3118C118.821 28.3296 118.357 28.4308 118.943 28.6671C119.393 28.8488 119.873 29.2891 120.009 29.6452C120.208 30.1613 115.597 44.6976 115.067 45.2273C114.854 45.4404 109.4 30.6782 109.4 29.8889C109.4 29.4995 109.792 28.9915 110.272 28.7601C110.973 28.4226 110.496 28.3397 107.848 28.3381C105.74 28.337 104.837 28.4517 105.342 28.6563Z" fill="#0C8093"/>
<path fill-rule="evenodd" clip-rule="evenodd" d="M69.7676 1.45312C69.2404 2.25254 68.5828 3.34215 68.3061 3.87498L67.8038 4.84376L68.8646 3.87498C69.4479 3.34215 70.4454 2.25254 71.0822 1.45312C72.1209 0.148798 72.162 0 71.4828 0C71.0372 0 70.3319 0.597912 69.7676 1.45312ZM19.8938 6.46738C19.6886 6.8529 18.3458 10.8306 16.91 15.3062C13.9653 24.4857 13.5411 25.4754 12.3421 25.9578C11.7182 26.2089 12.1649 26.3007 14.0103 26.3007C15.8975 26.3007 16.3116 26.2127 15.6582 25.9504C14.5686 25.5126 14.571 24.9379 15.6761 21.3125L16.5617 18.4062L20.0965 18.2954L23.6314 18.1842L24.6372 21.2028C25.951 25.1452 25.942 25.8656 24.5767 26.0725C23.9901 26.1612 24.9598 26.26 26.7311 26.2918L29.9519 26.3499L28.9647 25.478C28.2268 24.8263 27.16 22.2599 24.7377 15.3062C21.4948 5.99888 20.8089 4.74688 19.8938 6.46738ZM81.581 6.43248C79.5833 7.16717 76.8822 9.71461 75.871 11.8187C74.9576 13.7183 74.6588 17.4708 75.2479 19.6555C75.8853 22.0239 77.8817 24.4078 80.2716 25.6552C83.8194 27.5074 88.4829 27.0788 91.7281 24.6031C92.1391 24.2896 92.3662 23.9242 92.2331 23.7909C92.1 23.658 91.5539 23.8928 91.0196 24.3129C88.5443 26.2585 83.7914 26.4367 81.1406 24.6837C77.5333 22.2983 76.269 15.7135 78.5309 11.0933C80.357 7.36289 83.6263 5.7075 87.3856 6.60882C89.4557 7.10519 91.946 8.96283 91.9558 10.0184C91.961 10.5718 92.0119 10.5791 92.3381 10.0749C92.5443 9.75526 92.7165 8.7962 92.7198 7.94375C92.7256 6.42165 92.6995 6.39255 91.2714 6.32633C90.4722 6.28946 88.3342 6.16198 86.5211 6.04344C84.0602 5.88261 82.8088 5.98106 81.581 6.43248ZM0.0509122 6.46888C1.48485 6.98116 1.60195 7.72166 1.60195 16.275C1.60195 24.8282 1.48485 25.5687 0.0509122 26.081C-0.26899 26.1953 0.952455 26.2887 2.76522 26.2887C5.34072 26.2887 5.83708 26.2065 5.03519 25.9128C3.74704 25.4412 3.55275 24.7011 3.54616 20.2469L3.54075 16.6624H6.43385C8.91083 16.6624 9.44053 16.7845 10.1176 17.5107L10.9082 18.3586V16.275V14.1914L10.1176 15.0392C9.44053 15.7654 8.91083 15.8874 6.43385 15.8874H3.54075V11.4312V6.97496H6.41715C9.87407 6.97496 10.4499 7.16371 11.0129 8.48082L11.4456 9.4937L11.5934 8.39555C11.8873 6.21665 11.8319 6.19728 5.39461 6.23062C2.1359 6.24725 -0.26899 6.35458 0.0509122 6.46888ZM31.8472 6.44526C33.287 7.01802 33.3983 7.72401 33.3983 16.275C33.3983 24.8282 33.2812 25.5687 31.8472 26.081C31.5274 26.1953 33.4088 26.3026 36.0281 26.3193C41.4277 26.3542 42.7332 25.9927 44.4122 23.9982C45.3618 22.871 45.4789 22.4614 45.3215 20.8238C45.104 18.5624 43.3684 16.5086 41.2516 16.0083L39.8987 15.689L41.3854 14.7227C42.3055 14.1243 43.078 13.2122 43.413 12.3271C43.8996 11.0437 43.881 10.75 43.2327 9.44608C41.9321 6.83045 40.9363 6.41003 35.7958 6.30577C33.3044 6.25541 31.5274 6.31817 31.8472 6.44526ZM48.327 6.63825C48.7536 6.89361 49.2309 7.29198 49.3876 7.52333C49.5443 7.75461 49.6749 11.7029 49.6784 16.2978C49.6842 24.8298 49.5675 25.5687 48.1332 26.081C47.8132 26.1953 49.0347 26.2887 50.8475 26.2887C53.423 26.2887 53.9193 26.2065 53.1174 25.9128C51.8293 25.4412 51.6351 24.7011 51.6284 20.2469C51.623 16.7403 51.6428 16.6624 52.535 16.6624C54.1706 16.6624 55.9 18.3364 58.341 22.2812L60.7385 26.1562L62.8695 26.2348C64.0419 26.2782 64.7387 26.2123 64.419 26.0888C63.2629 25.6416 62.0475 24.2094 60.3084 21.2458C59.3344 19.585 58.0443 17.8118 57.4418 17.3053L56.3467 16.3846L57.5441 15.8452C59.3154 15.0478 60.2829 13.5043 60.2829 11.4765C60.2829 9.55262 59.5135 8.11037 57.9362 7.07726C57.1145 6.53941 55.8981 6.3705 52.2221 6.28366C48.4562 6.19532 47.7016 6.26389 48.327 6.63825ZM66.7455 6.7014L67.715 7.19157V16.275V25.3583L66.7455 25.8485C65.8896 26.281 66.1623 26.3387 69.0721 26.3387C71.9819 26.3387 72.2546 26.281 71.3986 25.8485L70.4291 25.3583V16.275V7.19157L71.3986 6.7014C72.2546 6.26898 71.9819 6.21124 69.0721 6.21124C66.1623 6.21124 65.8896 6.26898 66.7455 6.7014ZM95.0522 6.7014L96.0217 7.19157V16.275V25.3583L95.0522 25.8485C94.1962 26.281 94.4689 26.3387 97.3787 26.3387C100.289 26.3387 100.561 26.281 99.7052 25.8485L98.7357 25.3583V16.275V7.19157L99.7052 6.7014C100.561 6.26898 100.289 6.21124 97.3787 6.21124C94.4689 6.21124 94.1962 6.26898 95.0522 6.7014ZM35.5957 7.23345C35.4534 7.37529 35.3371 9.31585 35.3371 11.5451V15.5984L37.35 15.4054C40.0391 15.1469 41.1535 13.9283 41.1535 11.2456C41.1535 9.65609 40.9658 9.17212 39.9604 8.16733C39.0514 7.25903 38.4202 6.97496 37.3108 6.97496C36.5096 6.97496 35.7376 7.09123 35.5957 7.23345ZM51.623 11.4312V15.8874H53.5917C55.2505 15.8874 55.7387 15.7092 56.6938 14.7548C57.6546 13.7946 57.8272 13.3164 57.8272 11.616C57.8272 9.85136 57.6686 9.45149 56.5088 8.29247C55.3916 7.17611 54.9182 6.97496 53.4067 6.97496H51.623V11.4312ZM18.549 12.529C17.7588 14.9284 17.1124 17.0139 17.1124 17.1643C17.1124 17.3146 18.4963 17.4375 20.1881 17.4375H23.2634L21.7461 12.9239C20.9116 10.4412 20.1741 8.35523 20.107 8.28861C20.0404 8.22194 19.3393 10.13 18.549 12.529ZM35.3999 20.5522C35.5488 25.4168 35.638 25.5599 38.5299 25.5691C42.0407 25.5803 44.095 22.1851 42.5483 18.9274C41.6696 17.0771 40.1348 16.275 37.4725 16.275H35.2685L35.3999 20.5522ZM142.128 28.6377C139.064 30.0281 137.933 33.7585 139.756 36.4644C140.243 37.1887 141.801 38.4787 143.216 39.3312C146.575 41.3543 147.723 42.4722 148.01 43.9959C148.612 47.2039 145.439 49.2042 141.985 47.7933C140.598 47.2268 140.042 46.7103 139.354 45.349L138.481 43.6231L138.487 46.3208C138.491 48.0848 138.614 48.8265 138.845 48.4637C139.135 48.0049 139.46 47.9883 140.725 48.3668C144.676 49.5499 148.25 48.5648 149.492 45.9508C150.986 42.8036 149.858 40.7246 145.077 37.8164C141.353 35.5507 140.701 34.6602 140.947 32.1752C141.36 28.0181 146.709 27.2792 148.394 31.1464C148.916 32.3465 148.921 32.3379 148.936 30.0807C148.947 28.3107 148.843 27.891 148.466 28.1921C148.19 28.4126 147.648 28.4447 147.206 28.2669C145.88 27.7329 143.784 27.886 142.128 28.6377ZM67.715 28.7385C68.1417 28.9737 68.9703 29.6115 69.5568 30.1556L70.6235 31.1448L70.6177 38.5318C70.6151 42.5946 70.5094 46.3026 70.3834 46.7715C70.2582 47.2408 69.6932 47.7937 69.1288 48.0003C68.2905 48.3076 68.5991 48.3808 70.8173 48.4009C73.2489 48.4235 73.4309 48.375 72.5619 47.9364L71.5924 47.4465L71.4873 39.7314C71.4293 35.4883 71.4456 32.0927 71.5226 32.1864C71.6002 32.2798 75.0502 36.101 79.1898 40.6781L86.7155 49L86.9093 39.2563C87.0156 33.8976 87.1905 29.4371 87.2968 29.3449C87.4038 29.2523 87.8397 28.9818 88.2663 28.7439C88.894 28.3936 88.5247 28.3146 86.3273 28.3296C84.0465 28.3456 83.7835 28.4107 84.6806 28.7381C85.2671 28.9524 85.8406 29.5053 85.9535 29.9668C86.0677 30.4284 86.1107 33.9821 86.0501 37.8637L85.9398 44.9212L78.4546 36.6043L70.9693 28.2874L68.9546 28.299C67.2721 28.3092 67.0672 28.3816 67.715 28.7385ZM91.5624 28.5564C92.9964 29.0686 93.1132 29.8091 93.1132 38.3624C93.1132 46.9156 92.9964 47.6562 91.5624 48.1684C91.2427 48.2828 93.7095 48.3901 97.0447 48.4068L103.109 48.4373L103.371 47.0416C103.515 46.274 103.534 45.5474 103.414 45.4269C103.294 45.3068 103.195 45.4118 103.195 45.6602C103.195 45.909 102.846 46.4611 102.419 46.8874C101.783 47.524 101.127 47.6624 98.7494 47.6624C95.1605 47.6624 95.0522 47.5097 95.0522 42.4567V38.7499L97.6697 38.7557C100.475 38.7623 100.887 38.9045 101.569 40.1061C101.935 40.751 102.01 40.4929 102.02 38.5666C102.031 36.3629 102.003 36.2936 101.428 37.1135C100.897 37.8726 100.481 37.9749 97.9385 37.9749H95.0522V33.5187V29.0624H98.0801C101.184 29.0624 101.95 29.3488 102.747 30.8062C103.11 31.4692 103.174 31.3436 103.183 29.9343L103.195 28.2874L97.0877 28.318C93.7291 28.3347 91.2427 28.4421 91.5624 28.5564ZM124.91 28.5564C126.344 29.0686 126.46 29.8091 126.46 38.3624C126.46 46.9156 126.344 47.6562 124.91 48.1684C124.59 48.2828 127.057 48.3901 130.392 48.4068L136.456 48.4373L136.718 47.0416C136.863 46.274 136.882 45.5474 136.761 45.4269C136.641 45.3068 136.542 45.4118 136.542 45.6602C136.542 45.909 136.193 46.4611 135.767 46.8874C135.13 47.524 134.475 47.6624 132.097 47.6624C128.508 47.6624 128.399 47.5097 128.399 42.4567V38.7499L131.017 38.7557C133.823 38.7623 134.234 38.9045 134.916 40.1061C135.282 40.751 135.357 40.4929 135.367 38.5666C135.379 36.3629 135.35 36.2936 134.776 37.1135C134.244 37.8726 133.829 37.9749 131.286 37.9749H128.399V33.5187V29.0624H131.427C134.531 29.0624 135.297 29.3488 136.095 30.8062C136.457 31.4692 136.521 31.3436 136.531 29.9343L136.542 28.2874L130.435 28.318C127.076 28.3347 124.59 28.4421 124.91 28.5564Z" fill="#171A23"/>
<path fill-rule="evenodd" clip-rule="evenodd" d="M22.8683 36.4684L22.8684 37.1374L23.0614 36.7679C23.2801 36.3488 23.5174 36.2587 24.4421 36.2433L25.0784 36.2326L25.0489 38.7577L25.0193 41.2828L24.7435 41.4174C24.5 41.5362 24.5777 41.552 25.4054 41.552C26.2331 41.552 26.3108 41.5362 26.0673 41.4174L25.7915 41.2828L25.762 38.7577L25.7323 36.2326H26.3247C27.1602 36.2326 27.5907 36.4023 27.773 36.8035C27.923 37.1338 27.9248 37.1302 27.9337 36.4721C27.9419 35.8619 27.8385 35.6453 27.6669 35.9133C27.574 36.0582 23.3629 36.0548 23.0814 35.9096C22.881 35.8059 22.8681 35.8399 22.8683 36.4684ZM57.508 36.4684L57.5081 37.1374L57.7011 36.7679C57.9198 36.3488 58.1572 36.2587 59.0819 36.2433L59.7182 36.2326L59.6886 38.7577L59.659 41.2828L59.3832 41.4174C59.1397 41.5362 59.2174 41.552 60.0451 41.552C60.8728 41.552 60.9505 41.5362 60.707 41.4174L60.4313 41.2828L60.4016 38.7577L60.3721 36.2326H60.9644C61.8002 36.2326 62.2302 36.4023 62.4129 36.8035C62.5629 37.1338 62.5649 37.1302 62.5734 36.4721C62.5818 35.8619 62.4781 35.6453 62.3065 35.9133C62.2139 36.0582 58.0026 36.0548 57.7212 35.9096C57.5207 35.8059 57.5078 35.8399 57.508 36.4684ZM5.4826 36.1159C4.61083 36.4979 4.28919 37.5227 4.80767 38.266C4.94644 38.465 5.38936 38.8194 5.7921 39.0536C6.74771 39.6093 7.07444 39.9165 7.15586 40.335C7.32719 41.2163 6.42437 41.7658 5.44188 41.3782C5.04717 41.2226 4.88909 41.0807 4.69323 40.7067L4.44505 40.2326L4.44668 40.9737C4.44779 41.4583 4.48296 41.662 4.54839 41.5624C4.63105 41.4363 4.7235 41.4318 5.08344 41.5358C6.20744 41.8607 7.22424 41.5902 7.57739 40.8721C8.00258 40.0075 7.68152 39.4363 6.32155 38.6375C5.26208 38.015 5.07646 37.7704 5.14666 37.0877C5.26403 35.9457 6.78587 35.7427 7.26508 36.8051C7.41376 37.1348 7.415 37.1325 7.41931 36.5124C7.42264 36.0261 7.39295 35.9108 7.28569 35.9935C7.20714 36.0541 7.05284 36.0629 6.92719 36.0141C6.55009 35.8674 5.95371 35.9094 5.4826 36.1159ZM12.5172 36.1853C11.8474 36.513 11.1336 37.3044 10.9582 37.9142C10.6661 38.929 10.8918 40.0272 11.5461 40.7751C12.4695 41.8306 14.4151 41.9735 15.6342 41.0752C15.7511 40.9891 15.8135 40.8866 15.7728 40.8472C15.7321 40.8079 15.6092 40.8541 15.4995 40.9498C15.2042 41.2077 14.4122 41.4487 13.8598 41.4487C13.2354 41.4487 12.7531 41.2454 12.3108 40.7961C11.7796 40.2563 11.5823 39.7094 11.5784 38.7662C11.5755 38.0644 11.6219 37.8582 11.9007 37.332C12.2507 36.6718 12.7065 36.3014 13.3863 36.1248C14.2097 35.9108 15.4483 36.388 15.6484 36.9965C15.7562 37.3241 15.9143 37.0305 15.9164 36.4988C15.9181 36.0808 15.9105 36.0726 15.5044 36.0537C15.2769 36.0431 14.6439 36.0038 14.0978 35.9661C13.1651 35.9019 13.0693 35.9151 12.5172 36.1853ZM18.345 36.1346C17.2351 36.6188 16.5812 37.6036 16.5835 38.7874C16.5896 41.8993 20.9778 42.797 22.3078 39.9583C22.5646 39.4104 22.6087 38.4573 22.4074 37.8088C22.227 37.2278 21.4932 36.4624 20.8314 36.1651C20.1042 35.8383 19.0535 35.8255 18.345 36.1346ZM39.774 36.0889C39.7286 36.1942 39.2944 37.407 38.809 38.7839C38.0568 40.9177 37.8857 41.3071 37.6506 41.4198C37.403 41.5385 37.4481 41.5515 38.0919 41.5468C38.6326 41.5429 38.748 41.518 38.5608 41.4454C38.2493 41.3246 38.2517 41.163 38.5792 40.1713L38.8428 39.3729L39.8359 39.3425L40.8291 39.3119L41.1237 40.1656C41.4619 41.1456 41.4532 41.3571 41.0699 41.46C40.9099 41.503 41.2101 41.5377 41.7875 41.543C42.6414 41.5508 42.7433 41.5336 42.5154 41.4205C42.3697 41.3482 42.2044 41.2171 42.1481 41.1293C42.0917 41.0415 41.6377 39.8442 41.1392 38.4686C40.4761 36.639 40.1822 35.9581 40.0445 35.9325C39.941 35.9133 39.8193 35.9836 39.774 36.0889ZM64.7055 36.0889C64.6605 36.1942 64.2259 37.407 63.7405 38.7839C62.9883 40.9177 62.8174 41.3071 62.5825 41.4198C62.3346 41.5385 62.3796 41.5515 63.0235 41.5468C63.5644 41.5429 63.6799 41.518 63.4926 41.4454C63.1814 41.3246 63.1834 41.163 63.5109 40.1713L63.7745 39.3729L64.7675 39.3425L65.7611 39.3119L66.0553 40.1656C66.3939 41.1456 66.3848 41.3571 66.0018 41.46C65.8413 41.503 66.1421 41.5377 66.7195 41.543C67.5735 41.5508 67.6753 41.5336 67.4469 41.4205C67.3015 41.3482 67.1364 41.2171 67.0796 41.1293C67.0235 41.0415 66.5694 39.8442 66.071 38.4686C65.4081 36.639 65.1139 35.9581 64.9762 35.9325C64.8731 35.9133 64.7511 35.9836 64.7055 36.0889ZM0.448444 36.1442C0.586235 36.2119 0.724353 36.3672 0.75535 36.4895C0.786457 36.6117 0.797711 37.7402 0.780611 38.9973L0.749393 41.2828L0.473601 41.4174C0.23013 41.5362 0.307899 41.552 1.1355 41.552C1.96277 41.552 2.04066 41.5362 1.79741 41.4176C1.53232 41.2885 1.52041 41.2388 1.49028 40.1418L1.45895 39.0003H2.08975C3.60649 39.0003 4.47108 37.8782 3.78754 36.7967C3.42284 36.2194 3.01344 36.0847 1.52162 36.051C0.46356 36.0271 0.248111 36.0458 0.448444 36.1442ZM8.55635 36.1881L8.86182 36.3479L8.83213 38.8154L8.80257 41.2828L8.5268 41.4174C8.28331 41.5362 8.36108 41.552 9.18868 41.552C10.0163 41.552 10.094 41.5362 9.85063 41.4174L9.57478 41.2828L9.54523 38.8154L9.51554 36.3479L9.82101 36.1881C10.1128 36.0353 10.0847 36.0282 9.18868 36.0282C8.29271 36.0282 8.26459 36.0353 8.55635 36.1881ZM19.0621 36.1162C18.2768 36.3046 17.6704 36.9016 17.4121 37.7407C16.967 39.1869 17.4917 40.7516 18.6096 41.3117C19.4616 41.7385 20.8581 41.3873 21.401 40.6097C22.0694 39.652 22.0336 37.8334 21.3275 36.8766C20.8983 36.2951 19.8226 35.9339 19.0621 36.1162ZM28.4943 36.0936C28.9023 36.2343 28.9355 36.4377 28.9355 38.7874C28.9355 41.1371 28.9023 41.3405 28.4943 41.4812C28.4033 41.5127 29.1051 41.5422 30.054 41.5467L31.7792 41.5552L31.8537 41.1717C31.8948 40.9608 31.9003 40.7612 31.866 40.7281C31.8318 40.6951 31.8038 40.724 31.8038 40.7922C31.8038 40.8605 31.7045 41.0122 31.5832 41.1293C31.4019 41.3042 31.2155 41.3422 30.539 41.3422C29.518 41.3422 29.4872 41.3003 29.4872 39.9122V38.8939L30.2318 38.8955C31.0301 38.8973 31.1471 38.9363 31.341 39.2665C31.4451 39.4436 31.4667 39.3727 31.4695 38.8435C31.4727 38.2381 31.4647 38.2191 31.3011 38.4443C31.1498 38.6529 31.0317 38.681 30.3082 38.681H29.4872V37.4568V36.2326H30.3486C31.2315 36.2326 31.4494 36.3112 31.6764 36.7116C31.7796 36.8938 31.7976 36.8593 31.8005 36.4721L31.8038 36.0197L30.0663 36.0281C29.1106 36.0327 28.4033 36.0622 28.4943 36.0936ZM32.5729 36.1382C32.7228 36.196 32.8835 36.3007 32.9297 36.371C32.976 36.4413 33.0147 37.5314 33.0156 38.7937C33.0173 41.1375 32.9841 41.3405 32.576 41.4812C32.485 41.5127 32.8325 41.5383 33.3482 41.5383C34.081 41.5383 34.2222 41.5157 33.9941 41.435C33.6275 41.3055 33.5723 41.1022 33.5705 39.8786C33.569 38.9494 33.5819 38.8939 33.8001 38.8939C33.9272 38.8939 34.1766 38.9767 34.3542 39.0779C34.6834 39.2656 34.811 39.4268 35.7039 40.7833L36.2121 41.5552L36.7935 41.5467C37.1132 41.5422 37.3004 41.512 37.2093 41.48C36.8845 41.3654 36.5366 40.9703 36.0384 40.1506C35.7604 39.693 35.3995 39.2119 35.2364 39.0816L34.9398 38.8446L35.267 38.6829C36.0257 38.308 36.2955 37.3157 35.8119 36.679C35.4076 36.1467 34.9696 36.0194 33.5689 36.0266C32.6186 36.0316 32.3686 36.0595 32.5729 36.1382ZM43.362 36.1442C43.4998 36.2119 43.6379 36.3672 43.6689 36.4895C43.7 36.6117 43.7113 37.7402 43.6942 38.9973L43.663 41.2828L43.3871 41.4174C43.1437 41.5362 43.2215 41.552 44.0491 41.552C44.8763 41.552 44.9542 41.5362 44.711 41.4176C44.4459 41.2885 44.4339 41.2388 44.4039 40.1418L44.3725 39.0003H45.0033C46.5201 39.0003 47.3847 37.8782 46.7011 36.7967C46.3364 36.2194 45.927 36.0847 44.4352 36.051C43.3772 36.0271 43.1617 36.0458 43.362 36.1442ZM47.5792 36.0936C47.9872 36.2343 48.0205 36.4377 48.0205 38.7874C48.0205 41.1371 47.9872 41.3405 47.5792 41.4812C47.4882 41.5127 48.1901 41.5422 49.139 41.5467L50.8641 41.5552L50.9387 41.1717C50.9798 40.9608 50.9853 40.7612 50.951 40.7281C50.9168 40.6951 50.8887 40.724 50.8887 40.7922C50.8887 40.8605 50.7894 41.0122 50.6681 41.1293C50.4869 41.3042 50.3005 41.3422 49.624 41.3422C48.603 41.3422 48.5721 41.3003 48.5721 39.9122V38.8939L49.3167 38.8955C50.115 38.8973 50.232 38.9363 50.426 39.2665C50.5301 39.4436 50.5516 39.3727 50.5545 38.8435C50.5577 38.2381 50.5496 38.2191 50.3861 38.4443C50.2348 38.6529 50.1167 38.681 49.3932 38.681H48.5721V37.4568V36.2326H49.4336C50.3164 36.2326 50.5344 36.3112 50.7613 36.7116C50.8646 36.8938 50.8826 36.8593 50.8854 36.4721L50.8887 36.0197L49.1513 36.0281C48.1955 36.0327 47.4882 36.0622 47.5792 36.0936ZM51.6058 36.1469C51.7272 36.2133 51.8629 36.3197 51.9076 36.3832C51.9521 36.4468 51.9893 37.3219 51.9903 38.3281C51.9921 40.2752 52.0504 40.575 52.523 41.0626C53.3529 41.9192 55.0766 41.8488 55.6645 40.9343L55.8472 40.6503L55.8501 41.1027L55.853 41.5552L56.4874 41.5484C56.9665 41.5433 57.0627 41.5187 56.8807 41.448C56.4513 41.281 56.4046 41.0204 56.4046 38.7874C56.4046 36.5544 56.4513 36.2938 56.8807 36.1269C57.0456 36.0628 56.8082 36.0338 56.1289 36.0348C55.3345 36.0362 55.1967 36.0579 55.4396 36.1435C55.6119 36.2042 55.7709 36.3572 55.8073 36.4974C55.8427 36.6332 55.855 37.5838 55.8348 38.61C55.8012 40.309 55.7771 40.5025 55.5657 40.7759C55.0308 41.4675 53.9484 41.7072 53.3391 41.269C52.6911 40.803 52.6053 40.4988 52.5603 38.5098C52.5166 36.5763 52.5696 36.3019 53.0196 36.1269C53.1872 36.0618 52.975 36.0321 52.3229 36.0297C51.569 36.0269 51.4284 36.0498 51.6058 36.1469ZM1.46646 37.5767V38.9209L2.02621 38.8691C2.33766 38.8402 2.71704 38.7233 2.88119 38.6058C3.46544 38.1875 3.47588 37.0907 2.9009 36.536C2.63791 36.2821 2.49516 36.2326 2.02654 36.2326H1.46646V37.5767ZM33.5689 37.47V38.7074L34.1943 38.6574C35.0239 38.5909 35.334 38.2743 35.334 37.4934C35.334 37.0247 35.2863 36.9105 34.9589 36.5945C34.6411 36.2878 34.5064 36.2326 34.0764 36.2326H33.5689V37.47ZM44.38 37.5767V38.9209L44.9398 38.8691C45.2512 38.8402 45.6305 38.7233 45.7947 38.6058C46.3789 38.1875 46.3894 37.0907 45.8145 36.536C45.5515 36.2821 45.4087 36.2326 44.9401 36.2326H44.38V37.5767ZM39.3832 37.7584C39.1583 38.4175 38.9745 38.9904 38.9745 39.0317C38.9745 39.073 39.3705 39.1067 39.8545 39.1067H40.7344L40.2818 37.856C40.033 37.168 39.8209 36.5951 39.8106 36.5826C39.8003 36.5703 39.608 37.0993 39.3832 37.7584ZM64.3147 37.7584C64.0902 38.4175 63.9063 38.9904 63.9063 39.0317C63.9063 39.073 64.3023 39.1067 64.7864 39.1067H65.6665L65.2137 37.856C64.9645 37.168 64.7524 36.5951 64.7427 36.5826C64.7322 36.5703 64.5398 37.0993 64.3147 37.7584Z" fill="#171A23"/>
<path d="M0.352539 43.6292H67.2258" stroke="#0C8093"/>
<path fill-rule="evenodd" clip-rule="evenodd" d="M133.563 14.3759C133.097 14.5299 132.942 15.0891 133.265 15.4515C133.395 15.598 133.543 15.6603 133.754 15.6581C133.953 15.656 134.049 15.6175 134.193 15.482C134.525 15.1688 134.444 14.6321 134.032 14.42C133.902 14.3528 133.693 14.3331 133.563 14.3759Z" fill="white"/>
<path fill-rule="evenodd" clip-rule="evenodd" d="M136.826 14.3759C136.359 14.5299 136.204 15.0891 136.527 15.4515C136.658 15.598 136.805 15.6603 137.016 15.6581C137.215 15.656 137.311 15.6175 137.455 15.482C137.787 15.1688 137.706 14.6321 137.295 14.42C137.164 14.3528 136.955 14.3331 136.826 14.3759Z" fill="white"/>
<path fill-rule="evenodd" clip-rule="evenodd" d="M140.088 14.3759C139.621 14.5299 139.466 15.0891 139.789 15.4515C139.92 15.598 140.067 15.6603 140.278 15.6581C140.477 15.656 140.573 15.6175 140.717 15.482C141.049 15.1688 140.968 14.6321 140.557 14.42C140.426 14.3528 140.217 14.3331 140.088 14.3759Z" fill="white"/>
</svg>
